<svg width="9" height="14" viewBox="0 0 9 14" fill="none" xmlns="http://www.w3.org/2000/svg">
<path d="M2.92493 0.430643C2.46054 -0.0801786 1.66998 -0.117824 1.15916 0.346559C0.648337 0.810943 0.610691 1.6015 1.07507 2.11233L2.92493 0.430643ZM7 6.77148L7.92493 7.61233L8.68933 6.77148L7.92493 5.93064L7 6.77148ZM1.07507 11.4306C0.610691 11.9415 0.648337 12.732 1.15916 13.1964C1.66998 13.6608 2.46054 13.6231 2.92493 13.1123L1.07507 11.4306ZM1.07507 2.11233L6.07507 7.61233L7.92493 5.93064L2.92493 0.430643L1.07507 2.11233ZM6.07507 5.93064L1.07507 11.4306L2.92493 13.1123L7.92493 7.61233L6.07507 5.93064Z" fill="#949494"/>
</svg>
