<svg width="404" height="1381" viewBox="0 0 404 1381" fill="none" xmlns="http://www.w3.org/2000/svg">
<path d="M284.955 1047.95C284.955 1081.07 273.363 1081.07 273.363 1114.21C273.363 1147.34 284.955 1147.34 284.955 1180.46C284.955 1213.58 273.363 1213.6 273.363 1246.71" stroke="#FF7B72" stroke-width="3" stroke-miterlimit="10"/>
<path d="M331.234 992.434C334.063 950.319 310.054 914.414 277.609 912.237C245.164 910.061 216.569 942.438 213.74 984.553C210.911 1026.67 234.92 1062.57 267.365 1064.75C299.81 1066.93 328.405 1034.55 331.234 992.434Z" fill="#FFF683"/>
<path d="M280.744 1071C315.52 1071 343.712 1035.14 343.712 990.915C343.712 946.685 315.52 910.83 280.744 910.83C245.968 910.83 217.776 946.685 217.776 990.915C217.776 1035.14 245.968 1071 280.744 1071Z" stroke="#FF7B72" stroke-width="3" stroke-miterlimit="10"/>
<path d="M262.052 957.048C266.052 947.029 264.227 936.887 257.977 934.396C251.726 931.904 243.417 938.005 239.417 948.024C235.417 958.043 237.242 968.184 243.492 970.676C249.742 973.168 258.052 967.066 262.052 957.048Z" fill="white"/>
<path d="M49.0545 860.751C49.0545 882.035 41.6045 882.035 41.6045 903.332C41.6045 924.629 49.0545 924.629 49.0545 945.912C49.0545 967.196 41.6045 967.209 41.6045 988.493" stroke="#FF7B72" stroke-width="3" stroke-miterlimit="10"/>
<path d="M78.8044 825.081C80.6224 798.014 65.1922 774.938 44.34 773.539C23.4878 772.141 5.10993 792.949 3.29188 820.016C1.47382 847.083 16.904 870.159 37.7562 871.557C58.6085 872.956 76.9863 852.148 78.8044 825.081Z" fill="#B9FF83"/>
<path d="M46.3475 875.562C68.698 875.562 86.8166 852.518 86.8166 824.092C86.8166 795.666 68.698 772.623 46.3475 772.623C23.997 772.623 5.87842 795.666 5.87842 824.092C5.87842 852.518 23.997 875.562 46.3475 875.562Z" stroke="#FF7B72" stroke-width="3" stroke-miterlimit="10"/>
<path d="M34.337 802.329C36.9077 795.89 35.7351 789.372 31.7181 787.771C27.701 786.169 22.3606 790.091 19.7899 796.53C17.2192 802.969 18.3917 809.487 22.4088 811.088C26.4258 812.69 31.7663 808.768 34.337 802.329Z" fill="white"/>
<path d="M122.504 936.94L106.543 979.645L151.516 972.138L122.504 936.94Z" fill="#9CE8FF"/>
<path d="M125.59 934L109.629 976.705L154.595 969.204L125.59 934Z" stroke="#FF7B72" stroke-width="3" stroke-miterlimit="10"/>
<path d="M33.8605 1100.2C33.4667 1100.2 33.0659 1100.09 32.7214 1099.87C31.5542 1099.13 4.04053 1081.57 4.04053 1066.55C4.04053 1057.39 11.4867 1049.95 20.6415 1049.95C25.894 1049.95 30.7667 1052.43 33.8675 1056.51C36.9613 1052.43 41.834 1049.95 47.0864 1049.95C56.2413 1049.95 63.6875 1057.39 63.6875 1066.55C63.6875 1081.57 36.1738 1099.13 35.0066 1099.87C34.6621 1100.09 34.2613 1100.2 33.8675 1100.2H33.8605Z" fill="#FFAD9B"/>
<path d="M36.8701 1102.48C36.4622 1102.48 36.0474 1102.36 35.6888 1102.13C34.4724 1101.37 5.89697 1083.13 5.89697 1067.52C5.89697 1058.02 13.6315 1050.28 23.1378 1050.28C28.5942 1050.28 33.6567 1052.87 36.8701 1057.1C40.0834 1052.87 45.146 1050.28 50.6023 1050.28C60.1087 1050.28 67.8432 1058.02 67.8432 1067.52C67.8432 1083.13 39.2748 1101.37 38.0584 1102.13C37.6998 1102.36 37.2849 1102.48 36.8771 1102.48H36.8701Z" stroke="#FF7B72" stroke-width="3" stroke-miterlimit="10"/>
<path d="M255.97 512.171C274.038 516.559 292.241 505.471 296.629 487.404C301.016 469.338 289.927 451.135 271.859 446.747C253.791 442.359 235.588 453.448 231.2 471.514C226.812 489.58 237.902 507.783 255.97 512.171Z" fill="#FFAD9B"/>
<path d="M256.117 517.861C275.961 522.68 295.953 510.501 300.772 490.659C305.591 470.817 293.411 450.825 273.568 446.006C253.724 441.187 233.731 453.365 228.912 473.207C224.093 493.049 236.273 513.041 256.117 517.861Z" stroke="#FF7B72" stroke-width="3" stroke-miterlimit="10"/>
<path d="M319.741 393.719C319.741 393.719 355.822 414.47 344.865 451.911C344.865 451.911 313.542 435.117 319.741 393.719Z" fill="#B9FF83"/>
<path d="M271.188 461.412C271.188 461.412 277.544 436.564 297.227 410.545C316.898 384.522 340.34 381.915 340.34 381.915" stroke="#FF7B72" stroke-width="3" stroke-miterlimit="10"/>
<path d="M314.746 394.549C314.746 394.549 350.827 415.3 339.871 452.741C339.871 452.741 308.547 435.947 314.746 394.549Z" stroke="#FF7B72" stroke-width="3" stroke-miterlimit="10"/>
<path d="M258.127 469.514C263.85 464.727 266.13 458.024 263.219 454.544C260.307 451.063 253.307 452.122 247.583 456.909C241.86 461.696 239.58 468.398 242.491 471.879C245.403 475.36 252.403 474.301 258.127 469.514Z" fill="white"/>
<path d="M92.4219 543.281L234.265 583.177V686.743H18.9054V583.177L92.4219 543.281Z" fill="#F9F1E4"/>
<path d="M18.6644 628.444H233.496V654.66H18.6644V628.444Z" fill="#FFAD9B"/>
<path d="M11.5436 590.614H226.903V694.194H11.5436V590.614Z" stroke="#FF7B72" stroke-width="3" stroke-miterlimit="10"/>
<path d="M226.903 590.614L85.045 550.717L11.5285 590.614" stroke="#FF7B72" stroke-width="3" stroke-miterlimit="10"/>
<path d="M101.067 523.008L86.5387 529.524C74.1074 535.105 67.0016 552.331 70.6677 567.988L72.7798 576.993L87.3081 570.477C99.7393 564.896 106.845 547.67 103.179 532.013L101.067 523.008V523.008Z" fill="#B0E490"/>
<path d="M106.377 520.806L88.5753 530.987C75.45 538.499 68.9779 557.912 74.1073 574.353L76.3552 581.533L94.1573 571.352C107.283 563.84 113.755 544.427 108.625 527.985L106.377 520.806V520.806Z" stroke="#FF7B72" stroke-width="3" stroke-miterlimit="10"/>
<path d="M68.4197 576.993C53.072 576.993 40.6303 564.553 40.6303 549.208C40.6303 533.863 53.072 521.424 68.4197 521.424C83.7673 521.424 96.209 533.863 96.209 549.208C96.209 564.553 83.7673 576.993 68.4197 576.993Z" fill="#9CE8FF"/>
<path d="M74.0921 547.217C68.8513 547.217 64.6027 542.969 64.6027 537.73C64.6027 532.49 68.8513 528.242 74.0921 528.242C79.333 528.242 83.5815 532.49 83.5815 537.73C83.5815 542.969 79.333 547.217 74.0921 547.217Z" fill="white"/>
<path d="M67.7107 582.68C50.9049 582.68 37.2812 569.058 37.2812 552.255C37.2812 535.453 50.9049 521.831 67.7107 521.831C84.5164 521.831 98.1401 535.453 98.1401 552.255C98.1401 569.058 84.5164 582.68 67.7107 582.68Z" stroke="#FF7B72" stroke-width="3" stroke-miterlimit="10"/>
<path d="M127.785 542.496C128.69 544.668 129.279 546.735 132.009 548.786C134.74 550.838 138.542 552.633 139.779 554.548C141.016 556.464 141.785 557.686 141.619 560.114C141.453 562.543 140.458 563.538 140.458 563.538C140.458 563.538 143.399 565.484 144.169 568.169C144.938 570.854 144.818 573.177 144.229 574.7C143.641 576.224 142.479 579.059 138.738 580.357C134.996 581.654 125.371 582.182 122.037 582.137C118.703 582.091 105.774 582.016 101.595 580.839C97.4159 579.663 94.308 577.958 93.2369 574.776C92.1657 571.593 92.1959 568.169 93.7046 566.148C95.2132 564.126 97.3404 562.935 97.3404 562.935C97.3404 562.935 96.1788 561.668 96.1184 560.039C96.0581 558.41 96.3145 554.473 102.078 550.219C107.841 545.965 109.892 536.885 117.194 535.678C117.194 535.678 120.649 535.075 123.455 536.206C125.522 537.036 127.785 542.496 127.785 542.496V542.496Z" fill="#F9F1E4"/>
<path d="M123.546 542.164C124.466 544.397 125.07 546.524 127.891 548.635C130.712 550.747 134.619 552.587 135.887 554.563C137.154 556.539 137.938 557.791 137.772 560.28C137.606 562.769 136.581 563.795 136.581 563.795C136.581 563.795 139.598 565.801 140.397 568.561C141.197 571.321 141.061 573.72 140.458 575.273C139.854 576.827 138.662 579.768 134.8 581.096C130.938 582.423 121.057 582.966 117.632 582.921C114.207 582.876 100.916 582.8 96.6013 581.593C92.2866 580.387 89.1184 578.637 88.002 575.364C86.8856 572.091 86.946 568.576 88.4848 566.495C90.0236 564.413 92.2262 563.191 92.2262 563.191C92.2262 563.191 91.0344 561.894 90.959 560.22C90.8835 558.545 91.1551 554.503 97.0841 550.114C103.013 545.724 105.125 536.402 112.623 535.15C112.623 535.15 116.184 534.532 119.065 535.693C121.177 536.553 123.516 542.164 123.516 542.164H123.546Z" stroke="#FF7B72" stroke-width="3" stroke-miterlimit="10"/>
<path d="M125.552 552.165C125.552 552.165 130.546 555.182 131.345 556.796C132.145 558.41 132.265 558.862 132.054 560.039C131.843 561.215 131.149 562.708 130.319 563.04C129.49 563.372 125.929 563.734 125.929 563.734C125.929 563.734 123.138 563.101 122.595 562.377C122.052 561.653 123.681 561.457 124.39 560.506C125.099 559.556 124.843 557.489 123.561 556.207C122.278 554.925 120.407 552.723 120.679 551.893C121.132 550.521 122.686 550.762 123.259 550.913C123.832 551.064 125.552 552.165 125.552 552.165Z" fill="white"/>
<path d="M129.882 563.372C129.882 563.372 134.695 566.585 135.66 568.833C136.641 571.08 136.566 571.729 136.309 573.388C136.053 575.047 135.042 576.646 134.106 577.279C133.352 577.792 130.44 578.094 130.44 578.094C130.44 578.094 127.876 577.777 127.212 576.767C126.548 575.756 126.654 574.564 127.242 573.071C128.102 570.884 127.242 569.813 126.08 568.018C124.768 565.982 121.856 564.217 121.886 562.874C121.917 561.532 123.591 561.562 124.33 561.577C126.518 561.653 129.882 563.372 129.882 563.372V563.372Z" fill="white"/>
<path d="M22.4158 557.064L27.2284 568.271C31.347 577.864 44.442 583.506 56.4811 580.896L63.4058 579.388L58.5932 568.18C54.4746 558.587 41.3795 552.946 29.3405 555.555L22.4158 557.064Z" fill="#B0E490"/>
<path d="M15.9036 558.44L23.477 572.196C29.059 582.333 43.8438 587.536 56.5013 583.826L62.0381 582.197L54.4647 568.44C48.8827 558.304 34.0979 553.1 21.4403 556.811L15.9036 558.44V558.44Z" stroke="#FF7B72" stroke-width="3" stroke-miterlimit="10"/>
<path d="M184.538 707.187H191.96C186.133 718.646 176.726 724.375 163.737 724.375C156.348 724.375 149.724 721.592 143.864 716.025C138.005 710.459 135.075 703.737 135.075 695.859C135.075 687.884 137.989 681.064 143.815 675.4C149.642 669.704 156.674 666.855 164.909 666.855C171.387 666.855 177.035 668.597 181.853 672.08C186.67 675.53 190.072 679.779 192.058 684.824H184.636C179.818 677.044 173.275 673.154 165.007 673.154C159.017 673.154 153.695 675.189 149.04 679.258C144.385 683.327 142.058 688.893 142.058 695.957C142.058 702.077 144.32 707.301 148.845 711.631C153.369 715.928 158.415 718.076 163.981 718.076C173.454 718.076 180.306 714.446 184.538 707.187ZM257.683 668.271V722.959H250.7V713.437C245.004 720.729 237.858 724.375 229.265 724.375C220.769 724.375 213.754 721.543 208.22 715.879C202.686 710.215 199.919 703.379 199.919 695.371C199.919 687.591 202.621 680.902 208.024 675.303C213.461 669.671 220.541 666.855 229.265 666.855C238.509 666.855 245.655 670.501 250.7 677.793V668.271H257.683ZM229.216 673.154C223.031 673.154 217.757 675.205 213.396 679.307C209.066 683.408 206.901 688.779 206.901 695.42C206.901 702.353 209.034 707.871 213.298 711.973C217.595 716.042 222.771 718.076 228.825 718.076C235.205 718.076 240.511 715.879 244.743 711.484C249.007 707.09 251.14 701.735 251.14 695.42C251.14 689.17 249.024 683.896 244.792 679.599C240.56 675.303 235.368 673.154 229.216 673.154ZM271.11 722.959V648.74H278.093V702.012L303.483 668.271H312.468L290.935 696.055L313.542 722.959H304.558L286.345 701.621L278.093 712.51V722.959H271.11ZM325.114 698.203C325.147 703.183 327.312 707.741 331.608 711.875C335.905 716.009 340.983 718.076 346.843 718.076C349.968 718.076 353.435 717.083 357.243 715.098C361.084 713.079 364.014 709.661 366.032 704.844H373.454C370.948 711.126 367.269 715.96 362.419 719.346C357.601 722.698 352.425 724.375 346.892 724.375C338.786 724.375 331.966 721.51 326.433 715.781C320.899 710.019 318.132 703.379 318.132 695.859C318.132 688.014 320.801 681.227 326.14 675.498C331.478 669.736 338.379 666.855 346.843 666.855C354.395 666.855 360.987 669.655 366.618 675.254C372.282 680.853 375.114 687.803 375.114 696.103V698.203H325.114ZM325.212 691.904H368.132C367.058 685.947 364.486 681.341 360.417 678.086C356.348 674.798 351.823 673.154 346.843 673.154C341.081 673.154 336.117 675.058 331.95 678.867C327.784 682.676 325.537 687.021 325.212 691.904Z" fill="#FFAD9B"/>
<path d="M187.169 709.187V706.187H185.445L184.577 707.676L187.169 709.187ZM194.591 709.187L197.265 710.547L199.482 706.187H194.591V709.187ZM146.446 677.4L148.537 679.551L148.544 679.545L146.446 677.4ZM184.483 674.08L182.726 676.511L182.737 676.519L184.483 674.08ZM194.688 686.824V689.824H199.093L197.48 685.725L194.688 686.824ZM187.267 686.824L184.716 688.404L185.596 689.824H187.267V686.824ZM151.476 713.631L149.402 715.798L149.41 715.806L151.476 713.631ZM187.169 712.187H194.591V706.187H187.169V712.187ZM191.917 707.828C189.213 713.145 185.758 716.986 181.605 719.516C177.449 722.046 172.412 723.375 166.368 723.375V729.375C173.313 729.375 179.473 727.839 184.725 724.64C189.98 721.441 194.142 716.689 197.265 710.547L191.917 707.828ZM166.368 723.375C159.823 723.375 153.92 720.941 148.561 715.85L144.429 720.2C150.789 726.242 158.135 729.375 166.368 729.375V723.375ZM148.561 715.85C143.281 710.834 140.706 704.891 140.706 697.859H134.706C134.706 706.583 137.991 714.084 144.429 720.2L148.561 715.85ZM140.706 697.859C140.706 690.711 143.279 684.663 148.537 679.551L144.355 675.249C137.96 681.466 134.706 689.057 134.706 697.859H140.706ZM148.544 679.545C153.803 674.403 160.079 671.855 167.54 671.855V665.855C158.53 665.855 150.743 669.004 144.349 675.255L148.544 679.545ZM167.54 671.855C173.446 671.855 178.466 673.431 182.726 676.511L186.241 671.649C180.866 667.762 174.589 665.855 167.54 665.855V671.855ZM182.737 676.519C187.13 679.665 190.143 683.465 191.897 687.923L197.48 685.725C195.263 680.092 191.473 675.396 186.23 671.641L182.737 676.519ZM194.688 683.824H187.267V689.824H194.688V683.824ZM189.817 685.245C184.522 676.694 177.071 672.154 167.638 672.154V678.154C174.741 678.154 180.376 681.394 184.716 688.404L189.817 685.245ZM167.638 672.154C160.897 672.154 154.879 674.469 149.697 678.999L153.645 683.516C157.773 679.908 162.4 678.154 167.638 678.154V672.154ZM149.697 678.999C144.293 683.722 141.688 690.165 141.688 697.957H147.688C147.688 691.622 149.739 686.931 153.645 683.516L149.697 678.999ZM141.688 697.957C141.688 704.917 144.301 710.918 149.402 715.798L153.55 711.463C149.601 707.685 147.688 703.237 147.688 697.957H141.688ZM149.41 715.806C154.419 720.563 160.182 723.076 166.612 723.076V717.076C161.91 717.076 157.582 715.292 153.541 711.455L149.41 715.806ZM166.612 723.076C176.989 723.076 184.914 719.012 189.761 710.698L184.577 707.676C180.96 713.881 175.181 717.076 166.612 717.076V723.076ZM260.313 670.271H263.313V667.271H260.313V670.271ZM260.313 724.959V727.959H263.313V724.959H260.313ZM253.331 724.959H250.331V727.959H253.331V724.959ZM253.331 715.437H256.331V706.724L250.967 713.59L253.331 715.437ZM210.655 677.303L208.497 675.219L208.497 675.219L210.655 677.303ZM253.331 679.793L250.864 681.5L256.331 689.401V679.793H253.331ZM253.331 670.271V667.271H250.331V670.271H253.331ZM216.026 681.307L213.971 679.121L213.963 679.129L216.026 681.307ZM215.929 713.973L213.849 716.135L213.857 716.143L213.866 716.151L215.929 713.973ZM247.374 713.484L245.221 711.395L245.213 711.403L247.374 713.484ZM247.423 681.599L245.285 683.705L247.423 681.599ZM257.313 670.271V724.959H263.313V670.271H257.313ZM260.313 721.959H253.331V727.959H260.313V721.959ZM256.331 724.959V715.437H250.331V724.959H256.331ZM250.967 713.59C245.789 720.219 239.487 723.375 231.896 723.375V729.375C241.491 729.375 249.48 725.239 255.695 717.284L250.967 713.59ZM231.896 723.375C224.142 723.375 217.922 720.823 212.996 715.782L208.705 719.975C214.847 726.262 222.657 729.375 231.896 729.375V723.375ZM212.996 715.782C208.017 710.686 205.55 704.605 205.55 697.371H199.55C199.55 706.152 202.616 713.744 208.705 719.975L212.996 715.782ZM205.55 697.371C205.55 690.368 207.95 684.426 212.814 679.386L208.497 675.219C202.553 681.377 199.55 688.814 199.55 697.371H205.55ZM212.814 679.386C217.617 674.41 223.883 671.855 231.896 671.855V665.855C222.46 665.855 214.566 668.932 208.497 675.219L212.814 679.386ZM231.896 671.855C240.205 671.855 246.407 675.058 250.864 681.5L255.798 678.086C250.164 669.944 242.075 665.855 231.896 665.855V671.855ZM256.331 679.793V670.271H250.331V679.793H256.331ZM253.331 673.271H260.313V667.271H253.331V673.271ZM231.847 672.154C224.926 672.154 218.91 674.477 213.971 679.121L218.081 683.492C221.867 679.932 226.398 678.154 231.847 678.154V672.154ZM213.963 679.129C208.965 683.864 206.532 690.059 206.532 697.42H212.532C212.532 691.5 214.429 686.952 218.09 683.484L213.963 679.129ZM206.532 697.42C206.532 705.017 208.895 711.37 213.849 716.135L218.008 711.81C214.433 708.372 212.532 703.69 212.532 697.42H206.532ZM213.866 716.151C218.734 720.761 224.654 723.076 231.456 723.076V717.076C226.149 717.076 221.717 715.322 217.991 711.794L213.866 716.151ZM231.456 723.076C238.61 723.076 244.709 720.576 249.535 715.565L245.213 711.403C241.575 715.181 237.063 717.076 231.456 717.076V723.076ZM249.527 715.573C254.353 710.6 256.771 704.488 256.771 697.42H250.771C250.771 702.982 248.924 707.58 245.221 711.395L249.527 715.573ZM256.771 697.42C256.771 690.414 254.367 684.375 249.56 679.494L245.285 683.705C248.942 687.418 250.771 691.926 250.771 697.42H256.771ZM249.56 679.494C244.752 674.612 238.784 672.154 231.847 672.154V678.154C237.214 678.154 241.63 679.993 245.285 683.705L249.56 679.494ZM273.741 724.959H270.741V727.959H273.741V724.959ZM273.741 650.74V647.74H270.741V650.74H273.741ZM280.724 650.74H283.724V647.74H280.724V650.74ZM280.724 704.012H277.724V712.987L283.121 705.815L280.724 704.012ZM306.114 670.271V667.271H304.617L303.717 668.467L306.114 670.271ZM315.099 670.271L317.47 672.109L321.219 667.271H315.099V670.271ZM293.565 698.055L291.194 696.217L289.711 698.131L291.269 699.985L293.565 698.055ZM316.173 724.959V727.959H322.612L318.47 723.029L316.173 724.959ZM307.188 724.959L304.907 726.907L305.805 727.959H307.188V724.959ZM288.976 703.621L291.257 701.673L288.837 698.837L286.585 701.809L288.976 703.621ZM280.724 714.51L278.333 712.698L277.724 713.501V714.51H280.724ZM280.724 724.959V727.959H283.724V724.959H280.724ZM276.741 724.959V650.74H270.741V724.959H276.741ZM273.741 653.74H280.724V647.74H273.741V653.74ZM277.724 650.74V704.012H283.724V650.74H277.724ZM283.121 705.815L308.511 672.075L303.717 668.467L278.327 702.208L283.121 705.815ZM306.114 673.271H315.099V667.271H306.114V673.271ZM312.727 668.434L291.194 696.217L295.937 699.892L317.47 672.109L312.727 668.434ZM291.269 699.985L313.876 726.889L318.47 723.029L295.862 696.125L291.269 699.985ZM316.173 721.959H307.188V727.959H316.173V721.959ZM309.47 723.011L291.257 701.673L286.694 705.569L304.907 726.907L309.47 723.011ZM286.585 701.809L278.333 712.698L283.115 716.322L291.367 705.433L286.585 701.809ZM277.724 714.51V724.959H283.724V714.51H277.724ZM280.724 721.959H273.741V727.959H280.724V721.959ZM327.745 700.203V697.203H324.725L324.745 700.223L327.745 700.203ZM359.874 717.098L361.261 719.758L361.269 719.753L359.874 717.098ZM368.663 706.844V703.844H366.667L365.896 705.684L368.663 706.844ZM376.085 706.844L378.871 707.955L380.512 703.844H376.085V706.844ZM365.05 721.346L366.763 723.808L366.767 723.806L365.05 721.346ZM329.063 717.781L326.9 719.859L326.906 719.865L329.063 717.781ZM328.771 677.498L330.965 679.543L330.971 679.537L328.771 677.498ZM369.249 677.254L367.134 679.381L367.14 679.387L369.249 677.254ZM377.745 700.203V703.203H380.745V700.203H377.745ZM327.843 693.904L324.849 693.705L324.636 696.904H327.843V693.904ZM370.763 693.904V696.904H374.352L373.715 693.372L370.763 693.904ZM363.048 680.086L361.162 682.419L361.168 682.424L361.174 682.428L363.048 680.086ZM324.745 700.223C324.784 706.169 327.403 711.461 332.159 716.037L336.319 711.713C332.482 708.021 330.771 704.198 330.745 700.183L324.745 700.223ZM332.159 716.037C337.004 720.698 342.824 723.076 349.474 723.076V717.076C344.405 717.076 340.068 715.32 336.319 711.713L332.159 716.037ZM349.474 723.076C353.228 723.076 357.176 721.887 361.261 719.758L358.487 714.437C354.955 716.279 351.969 717.076 349.474 717.076V723.076ZM361.269 719.753C365.847 717.348 369.2 713.327 371.43 708.003L365.896 705.684C364.09 709.995 361.583 712.811 358.479 714.442L361.269 719.753ZM368.663 709.844H376.085V703.844H368.663V709.844ZM373.299 705.732C370.977 711.551 367.636 715.882 363.333 718.886L366.767 723.806C372.164 720.039 376.18 714.702 378.871 707.955L373.299 705.732ZM363.336 718.883C358.989 721.909 354.405 723.375 349.522 723.375V729.375C355.707 729.375 361.475 727.488 366.763 723.808L363.336 718.883ZM349.522 723.375C342.215 723.375 336.179 720.829 331.221 715.697L326.906 719.865C333.016 726.191 340.619 729.375 349.522 729.375V723.375ZM331.227 715.703C326.193 710.462 323.763 704.552 323.763 697.859H317.763C317.763 706.205 320.866 713.577 326.9 719.859L331.227 715.703ZM323.763 697.859C323.763 690.772 326.145 684.716 330.965 679.543L326.576 675.453C320.719 681.738 317.763 689.257 317.763 697.859H323.763ZM330.971 679.537C335.694 674.439 341.773 671.855 349.474 671.855V665.855C340.247 665.855 332.524 669.033 326.57 675.459L330.971 679.537ZM349.474 671.855C356.189 671.855 362.032 674.309 367.134 679.381L371.364 675.126C365.203 669.001 357.863 665.855 349.474 665.855V671.855ZM367.14 679.387C372.208 684.397 374.745 690.566 374.745 698.103H380.745C380.745 689.039 377.619 681.309 371.358 675.12L367.14 679.387ZM374.745 698.103V700.203H380.745V698.103H374.745ZM377.745 697.203H327.745V703.203H377.745V697.203ZM327.843 696.904H370.763V690.904H327.843V696.904ZM373.715 693.372C372.534 686.823 369.647 681.524 364.922 677.743L361.174 682.428C364.586 685.158 366.843 689.071 367.81 694.437L373.715 693.372ZM364.933 677.752C360.36 674.057 355.177 672.154 349.474 672.154V678.154C353.732 678.154 357.598 679.539 361.162 682.419L364.933 677.752ZM349.474 672.154C342.98 672.154 337.289 674.327 332.557 678.653L336.605 683.081C340.206 679.79 344.444 678.154 349.474 678.154V672.154ZM332.557 678.653C327.914 682.897 325.234 687.932 324.849 693.705L330.836 694.104C331.102 690.111 332.915 686.455 336.605 683.081L332.557 678.653Z" fill="#FF7B72"/>
<path d="M357.534 1112.13L322.524 1137.04L361.597 1154.93L357.534 1112.13Z" fill="#9CE8FF"/>
<path d="M361.494 1111.47L326.485 1136.38L365.549 1154.26L361.494 1111.47Z" stroke="#FF7B72" stroke-width="3" stroke-miterlimit="10"/>
<path d="M354.256 51.4709L351.677 52.5844L379.864 117.874L382.443 116.761L354.256 51.4709Z" fill="#F9F1E4"/>
<path d="M344.14 31.5845C343.584 30.5958 341.713 27.7444 345.35 26.1743C348.987 24.6043 350.797 28.7108 350.797 28.7108C352.385 32.3899 350.692 36.6584 347.016 38.2453C343.34 39.8322 339.156 38.0992 337.484 34.4582C335.564 30.2789 333.727 22.1329 342.879 18.7844C353.137 15.0307 357.453 25.8371 357.453 25.8371C360.629 33.1944 357.244 41.7319 349.891 44.9061C346.156 46.5189 335.746 48.1888 330.205 36.4369C324.752 24.8704 330.715 15.5104 340.489 11.5182C350.36 7.48666 361.369 11.1537 366.19 22.0642C371.48 34.0346 365.843 48.3911 353.666 53.6484C341.488 58.9058 327.352 53.2894 322.091 41.1037C316.83 28.918 322.437 14.7772 334.614 9.51983C334.614 9.51983 337.208 8.47969 338.208 10.7072C338.676 11.7502 338.412 12.3331 338.412 12.3331" fill="#9CE8FF"/>
<path d="M350.115 56.4467L377.617 120.152L380.197 119.038L352.694 55.3332" stroke="#FF7B72" stroke-width="3" stroke-miterlimit="10"/>
<path d="M341.895 33.861C341.338 32.8722 339.468 30.0208 343.104 28.4508C346.741 26.8807 348.551 30.9873 348.551 30.9873C350.139 34.6663 348.446 38.9348 344.77 40.5218C341.094 42.1087 336.91 40.3756 335.238 36.7347C333.318 32.5553 331.481 24.4094 340.634 21.0608C350.891 17.3071 355.207 28.1136 355.207 28.1136C358.384 35.4709 354.998 44.0083 347.646 47.1825C343.91 48.7953 333.501 50.4652 327.959 38.7133C322.506 27.1472 328.469 17.788 338.243 13.7958C348.114 9.76425 359.123 13.4312 363.944 24.3418C369.234 36.3122 363.597 50.6686 351.419 55.926C339.242 61.1834 325.105 55.567 319.844 43.3805C314.583 31.1939 320.191 17.0544 332.369 11.7971C332.369 11.7971 334.963 10.7569 335.962 12.9844C336.431 14.0275 336.167 14.6103 336.167 14.6103" stroke="#FF7B72" stroke-width="3" stroke-miterlimit="10"/>
<path d="M326.865 180.155C325.87 183.821 312.241 183.309 296.424 179.015C280.607 174.72 268.591 168.267 269.586 164.603L270.354 116.951C269.801 121.479 285.436 131.117 307.85 136.935C330.316 142.767 347.869 143.134 350.159 139.096L326.865 180.155Z" fill="#FFAD9B"/>
<path d="M270.154 117.887C270.154 117.887 269.878 106.039 313.429 117.459C356.981 128.878 349.97 139.558 349.97 139.558C349.97 139.558 346.361 146.768 307.849 136.935C269.337 127.101 270.154 117.887 270.154 117.887Z" fill="#F9F1E4"/>
<path d="M308.885 93.9175C319.37 94.9093 320.931 84.2149 320.931 84.2149C320.931 84.2149 332.555 91.2378 332.391 97.7866" fill="#F9F1E4"/>
<path d="M331.563 93.6573C331.563 93.6573 339.487 98.1198 337.893 103.335C337.893 103.335 347.639 108.838 344.112 115.563L344.039 116.056C350.641 123.766 346.924 139.61 310.975 130.499" fill="#F9F1E4"/>
<path d="M344.341 115.986C350.942 123.696 347.226 139.54 311.277 130.429C275.329 121.319 279.567 115.883 279.567 115.883C279.211 98.497 298.702 92.8556 309.186 93.8474C319.67 94.8392 321.232 84.1448 321.232 84.1448C321.494 84.0665 334.147 90.7792 332.692 97.7165C331.347 104.127 327.606 109.106 322.768 110.066" fill="#F9F1E4"/>
<path d="M294.026 108.374C294.026 108.374 296.346 103.493 313.31 100.611C330.274 97.7297 320.486 84.6162 320.486 84.6162" fill="#F9F1E4"/>
<path d="M293.439 125.324C293.439 125.324 291.734 120.558 311.549 122.766C331.364 124.974 341.204 121.365 344.099 115.843C347.626 109.116 337.88 103.614 337.88 103.614" fill="#F9F1E4"/>
<path d="M331.536 93.6945C331.536 93.6945 339.46 98.157 337.866 103.372C336.271 108.586 326.287 111.634 315.122 110.05C303.957 108.466 283.945 105.74 279.482 116.45" fill="#F9F1E4"/>
<path d="M333.716 84.4626C334.583 90.3832 340.468 89.9756 340.468 89.9756C340.137 87.9306 339.029 86.6957 337.833 85.9488C340.678 85.7335 342.135 83.1654 342.135 83.1654C340.494 82.2831 338.995 82.2935 337.751 82.6595C339.253 80.8247 338.949 78.4552 338.949 78.4552C336.894 78.755 335.643 79.8388 334.881 81.0213C334.697 78.1823 332.137 76.6922 332.137 76.6922C329.984 80.5588 332.915 83.7067 333.716 84.4626Z" fill="#B9FF83"/>
<path d="M319.179 81.2308C314.291 84.9672 308.672 95.1473 312.429 100.027C316.187 104.906 327.9 102.637 332.788 98.8994C337.676 95.1619 338.591 88.1783 334.834 83.299C331.076 78.4198 324.067 77.4943 319.179 81.2308Z" fill="#FFAE9C"/>
<path d="M323.841 179.374C322.846 183.039 309.216 182.528 293.399 178.234C277.582 173.939 265.566 167.487 266.561 163.822L266.82 115.744C265.411 120.934 282.411 130.335 304.825 136.153C327.29 141.984 346.523 142.957 347.933 137.767L323.841 179.374Z" stroke="#FF7B72" stroke-width="3" stroke-miterlimit="10" stroke-linecap="round" stroke-linejoin="round"/>
<path d="M340.599 128.345C349.791 134.443 346.946 138.777 346.946 138.777C346.946 138.777 343.336 145.987 304.824 136.153C266.312 126.32 267.131 117.106 267.131 117.106C267.131 117.106 267.036 113.045 275.701 111.969" stroke="#FF7B72" stroke-width="3" stroke-miterlimit="10" stroke-linecap="round" stroke-linejoin="round"/>
<path d="M334.867 102.552C334.867 102.552 344.613 108.055 341.087 114.781L341.014 115.273C347.615 122.983 343.899 138.827 307.95 129.716C272.002 120.606 276.239 115.17 276.239 115.17" stroke="#FF7B72" stroke-width="3" stroke-miterlimit="10" stroke-linecap="round" stroke-linejoin="round"/>
<path d="M341.315 115.204C347.916 122.915 344.2 138.758 308.251 129.648C272.303 120.538 276.54 115.102 276.54 115.102C276.439 113.995 276.249 112.929 276.409 111.939C278.618 98.2132 295.577 92.0962 305.53 93.0373" stroke="#FF7B72" stroke-width="3" stroke-miterlimit="10" stroke-linecap="round" stroke-linejoin="round"/>
<path d="M291.001 107.591C291.001 107.591 291.934 102.985 308.898 100.104" stroke="#FF7B72" stroke-width="3" stroke-miterlimit="10" stroke-linecap="round" stroke-linejoin="round"/>
<path d="M290.413 124.542C290.413 124.542 288.708 119.777 308.523 121.984C328.339 124.192 338.178 120.583 341.073 115.061C344.6 108.335 334.854 102.832 334.854 102.832" stroke="#FF7B72" stroke-width="3" stroke-miterlimit="10" stroke-linecap="round" stroke-linejoin="round"/>
<path d="M330.021 94.1044C330.021 94.1044 336.435 97.3757 334.841 102.59C333.246 107.805 323.262 110.852 312.097 109.268C300.932 107.685 280.676 104.499 276.213 115.21" stroke="#FF7B72" stroke-width="3" stroke-miterlimit="10" stroke-linecap="round" stroke-linejoin="round"/>
<path d="M331.51 87.7966C333.179 88.5497 334.807 88.4372 334.807 88.4372C334.476 86.3922 333.368 85.1573 332.172 84.4104C335.017 84.1951 336.474 81.627 336.474 81.627C334.833 80.7447 333.334 80.7551 332.09 81.1211C333.592 79.2864 333.288 76.9169 333.288 76.9169C331.233 77.2166 329.982 78.3004 329.22 79.4829C329.036 76.644 326.476 75.1539 326.476 75.1539C325.756 76.446 325.605 77.6584 325.751 78.7284" stroke="#FF7B72" stroke-width="3" stroke-miterlimit="10"/>
<path d="M313.517 79.6934C308.63 83.4298 303.01 93.6099 306.768 98.4892C310.525 103.368 322.238 101.1 327.127 97.362C332.015 93.6245 332.93 86.6409 329.172 81.7616C325.414 76.8824 318.405 75.9569 313.517 79.6934Z" stroke="#FF7B72" stroke-width="3" stroke-miterlimit="10"/>
<path d="M324.564 86.6158C326.602 85.0023 327.459 82.6896 326.478 81.4503C325.496 80.2109 323.049 80.5142 321.011 82.1276C318.972 83.7411 318.116 86.0538 319.097 87.2931C320.078 88.5325 322.526 88.2292 324.564 86.6158Z" fill="white"/>
<rect x="44.1431" y="1221.88" width="281.786" height="107.245" fill="#F9F1E4"/>
<path d="M184.886 1267.56C262.783 1267.56 325.93 1248.14 325.93 1224.17C325.93 1200.21 262.783 1180.78 184.886 1180.78C106.99 1180.78 43.8428 1200.21 43.8428 1224.17C43.8428 1248.14 106.99 1267.56 184.886 1267.56Z" fill="#F9F1E4"/>
<path d="M325.948 1329.12C325.948 1353.08 262.796 1372.51 184.904 1372.51C107.013 1372.51 43.8428 1353.09 43.8428 1329.12" fill="#F9F1E4"/>
<path d="M192.975 1272.82C271.871 1272.82 335.829 1253.14 335.829 1228.87C335.829 1204.6 271.871 1184.93 192.975 1184.93C114.079 1184.93 50.1216 1204.6 50.1216 1228.87C50.1216 1253.14 114.079 1272.82 192.975 1272.82Z" stroke="#FF7B72" stroke-width="3" stroke-miterlimit="10"/>
<path d="M335.843 1335.18C335.843 1359.44 271.883 1379.12 192.989 1379.12C114.095 1379.12 50.1216 1359.44 50.1216 1335.18" stroke="#FF7B72" stroke-width="3" stroke-miterlimit="10"/>
<path d="M50.1216 1335.18V1228.87" stroke="#FF7B72" stroke-width="3" stroke-miterlimit="10"/>
<path d="M335.842 1228.87V1335.18" stroke="#FF7B72" stroke-width="3" stroke-miterlimit="10"/>
<path d="M144.886 1140.7H144.872C136.955 1140.7 130.537 1147.12 130.537 1155.04V1201.67C130.537 1209.59 136.955 1216.01 144.872 1216.01H144.886C152.803 1216.01 159.222 1209.59 159.222 1201.67V1155.04C159.222 1147.12 152.803 1140.7 144.886 1140.7Z" fill="#FFF683"/>
<path d="M156.179 1125.18C156.179 1130.51 151.382 1134.82 145.471 1134.82C139.56 1134.82 134.764 1130.51 134.764 1125.18C134.764 1119.86 139.56 1102.48 145.471 1102.48C151.382 1102.48 156.179 1119.87 156.179 1125.18Z" fill="#FFAD9B"/>
<path d="M164.087 1156.65C164.087 1147.88 156.975 1140.77 148.203 1140.77C139.43 1140.77 132.318 1147.88 132.318 1156.65V1202.35C132.318 1211.12 139.43 1218.23 148.203 1218.23C156.975 1218.23 164.087 1211.12 164.087 1202.35V1156.65Z" stroke="#FF7B72" stroke-width="3" stroke-miterlimit="10"/>
<path d="M160.716 1124.8C160.716 1130.28 155.403 1134.71 148.854 1134.71C142.304 1134.71 136.991 1130.26 136.991 1124.8C136.991 1119.34 142.291 1101.44 148.84 1101.44C155.39 1101.44 160.703 1119.33 160.703 1124.8H160.716Z" stroke="#FF7B72" stroke-width="3" stroke-miterlimit="10"/>
<path d="M148.637 1124.54V1146.46" stroke="#FF7B72" stroke-width="3" stroke-miterlimit="10"/>
<path d="M186.603 1140.7H186.589C178.672 1140.7 172.253 1147.12 172.253 1155.04V1201.67C172.253 1209.59 178.672 1216.01 186.589 1216.01H186.603C194.52 1216.01 200.938 1209.59 200.938 1201.67V1155.04C200.938 1147.12 194.52 1140.7 186.603 1140.7Z" fill="#B9FF83"/>
<path d="M197.881 1125.18C197.881 1130.51 193.085 1134.82 187.174 1134.82C181.263 1134.82 176.466 1130.51 176.466 1125.18C176.466 1119.86 181.263 1102.48 187.174 1102.48C193.085 1102.48 197.881 1119.87 197.881 1125.18Z" fill="#FFAD9B"/>
<path d="M205.803 1156.65C205.803 1147.88 198.691 1140.77 189.918 1140.77C181.146 1140.77 174.034 1147.88 174.034 1156.65V1202.35C174.034 1211.12 181.146 1218.23 189.918 1218.23C198.691 1218.23 205.803 1211.12 205.803 1202.35V1156.65Z" stroke="#FF7B72" stroke-width="3" stroke-miterlimit="10"/>
<path d="M202.419 1124.8C202.419 1130.28 197.106 1134.71 190.556 1134.71C184.007 1134.71 178.694 1130.26 178.694 1124.8C178.694 1119.34 184.007 1101.44 190.556 1101.44C197.106 1101.44 202.419 1119.33 202.419 1124.8Z" stroke="#FF7B72" stroke-width="3" stroke-miterlimit="10"/>
<path d="M190.353 1124.54V1146.46" stroke="#FF7B72" stroke-width="3" stroke-miterlimit="10"/>
<path d="M228.318 1140.7H228.305C220.388 1140.7 213.969 1147.12 213.969 1155.04V1201.67C213.969 1209.59 220.388 1216.01 228.305 1216.01H228.318C236.236 1216.01 242.654 1209.59 242.654 1201.67V1155.04C242.654 1147.12 236.236 1140.7 228.318 1140.7Z" fill="#9CE8FF"/>
<path d="M239.597 1125.18C239.597 1130.51 234.8 1134.82 228.889 1134.82C222.978 1134.82 218.182 1130.51 218.182 1125.18C218.182 1119.86 222.978 1102.48 228.889 1102.48C234.8 1102.48 239.597 1119.87 239.597 1125.18Z" fill="#FFAD9B"/>
<path d="M247.518 1156.65C247.518 1147.88 240.407 1140.77 231.634 1140.77C222.861 1140.77 215.749 1147.88 215.749 1156.65V1202.35C215.749 1211.12 222.861 1218.23 231.634 1218.23C240.407 1218.23 247.518 1211.12 247.518 1202.35V1156.65Z" stroke="#FF7B72" stroke-width="3" stroke-miterlimit="10"/>
<path d="M244.136 1124.8C244.136 1130.28 238.823 1134.71 232.273 1134.71C225.724 1134.71 220.411 1130.26 220.411 1124.8C220.411 1119.34 225.724 1101.44 232.273 1101.44C238.823 1101.44 244.136 1119.33 244.136 1124.8Z" stroke="#FF7B72" stroke-width="3" stroke-miterlimit="10"/>
<path d="M232.069 1124.54V1146.46" stroke="#FF7B72" stroke-width="2" stroke-miterlimit="10"/>
<path d="M148.08 1211.16C148.08 1226.52 133.975 1238.98 116.568 1238.98C99.1618 1238.98 85.0571 1226.52 85.0571 1211.16C85.0571 1195.79 99.1618 1157.97 116.568 1157.97C133.975 1157.97 148.08 1195.79 148.08 1211.16Z" fill="#FFAD9B"/>
<path d="M156.668 1213.59C156.668 1229.66 141.069 1242.69 121.841 1242.69C102.614 1242.69 87.0146 1229.66 87.0146 1213.59C87.0146 1197.51 102.614 1157.97 121.841 1157.97C141.069 1157.97 156.668 1197.51 156.668 1213.59Z" stroke="#FF7B72" stroke-width="3" stroke-miterlimit="10"/>
<path d="M120.008 1178.91C123.372 1172.54 123.048 1165.76 119.285 1163.78C115.522 1161.79 109.745 1165.34 106.381 1171.72C103.018 1178.09 103.342 1184.86 107.105 1186.85C110.868 1188.83 116.645 1185.28 120.008 1178.91Z" fill="white"/>
<path d="M96.5942 1212.99C97.4723 1212.99 98.1841 1211.79 98.1841 1210.31C98.1841 1208.83 97.4723 1207.64 96.5942 1207.64C95.7162 1207.64 95.0044 1208.83 95.0044 1210.31C95.0044 1211.79 95.7162 1212.99 96.5942 1212.99Z" fill="#FF7B72"/>
<path d="M101.295 1223.66C102.173 1223.66 102.885 1222.46 102.885 1220.98C102.885 1219.5 102.173 1218.3 101.295 1218.3C100.417 1218.3 99.7056 1219.5 99.7056 1220.98C99.7056 1222.46 100.417 1223.66 101.295 1223.66Z" fill="#FF7B72"/>
<path d="M111.935 1214.54C112.813 1214.54 113.525 1213.34 113.525 1211.86C113.525 1210.38 112.813 1209.19 111.935 1209.19C111.057 1209.19 110.345 1210.38 110.345 1211.86C110.345 1213.34 111.057 1214.54 111.935 1214.54Z" fill="#FF7B72"/>
<path d="M118.701 1222.47C119.579 1222.47 120.291 1221.28 120.291 1219.8C120.291 1218.32 119.579 1217.12 118.701 1217.12C117.823 1217.12 117.111 1218.32 117.111 1219.8C117.111 1221.28 117.823 1222.47 118.701 1222.47Z" fill="#FF7B72"/>
<path d="M127.671 1215.59C128.549 1215.59 129.261 1214.39 129.261 1212.91C129.261 1211.43 128.549 1210.23 127.671 1210.23C126.793 1210.23 126.081 1211.43 126.081 1212.91C126.081 1214.39 126.793 1215.59 127.671 1215.59Z" fill="#FF7B72"/>
<path d="M134.954 1226.12C135.832 1226.12 136.543 1224.92 136.543 1223.44C136.543 1221.96 135.832 1220.76 134.954 1220.76C134.076 1220.76 133.364 1221.96 133.364 1223.44C133.364 1224.92 134.076 1226.12 134.954 1226.12Z" fill="#FF7B72"/>
<path d="M141.612 1214.5C142.49 1214.5 143.202 1213.3 143.202 1211.82C143.202 1210.34 142.49 1209.14 141.612 1209.14C140.734 1209.14 140.022 1210.34 140.022 1211.82C140.022 1213.3 140.734 1214.5 141.612 1214.5Z" fill="#FF7B72"/>
<path d="M134.125 1204.69C135.003 1204.69 135.715 1203.49 135.715 1202.01C135.715 1200.53 135.003 1199.33 134.125 1199.33C133.247 1199.33 132.535 1200.53 132.535 1202.01C132.535 1203.49 133.247 1204.69 134.125 1204.69Z" fill="#FF7B72"/>
<path d="M127.086 1193.07C127.964 1193.07 128.676 1191.87 128.676 1190.39C128.676 1188.91 127.964 1187.72 127.086 1187.72C126.208 1187.72 125.496 1188.91 125.496 1190.39C125.496 1191.87 126.208 1193.07 127.086 1193.07Z" fill="#FF7B72"/>
<path d="M124.191 1232.72C125.069 1232.72 125.781 1231.52 125.781 1230.04C125.781 1228.56 125.069 1227.37 124.191 1227.37C123.313 1227.37 122.601 1228.56 122.601 1230.04C122.601 1231.52 123.313 1232.72 124.191 1232.72Z" fill="#FF7B72"/>
<path d="M109.91 1230.9C110.788 1230.9 111.5 1229.7 111.5 1228.22C111.5 1226.74 110.788 1225.55 109.91 1225.55C109.032 1225.55 108.32 1226.74 108.32 1228.22C108.32 1229.7 109.032 1230.9 109.91 1230.9Z" fill="#FF7B72"/>
<path d="M121.8 1201.64C121.8 1203.12 121.093 1204.32 120.21 1204.32C119.327 1204.32 118.62 1203.12 118.62 1201.64C118.62 1200.16 119.327 1198.97 120.21 1198.97C121.093 1198.97 121.8 1200.16 121.8 1201.64Z" fill="#FF7B72"/>
<path d="M107.125 1200.79C107.125 1202.27 106.418 1203.46 105.535 1203.46C104.652 1203.46 103.945 1202.27 103.945 1200.79C103.945 1199.31 104.652 1198.11 105.535 1198.11C106.418 1198.11 107.125 1199.31 107.125 1200.79Z" fill="#FF7B72"/>
<path d="M218.467 1221.48C218.467 1236.85 204.362 1249.31 186.956 1249.31C169.549 1249.31 155.444 1236.85 155.444 1221.48C155.444 1206.11 169.549 1168.3 186.956 1168.3C204.362 1168.3 218.467 1206.11 218.467 1221.48Z" fill="#FFAD9B"/>
<path d="M226.335 1223.91C226.335 1239.99 210.735 1253.02 191.508 1253.02C172.281 1253.02 156.681 1239.99 156.681 1223.91C156.681 1207.84 172.281 1168.3 191.508 1168.3C210.735 1168.3 226.335 1207.84 226.335 1223.91Z" stroke="#FF7B72" stroke-width="3" stroke-miterlimit="10"/>
<path d="M166.723 1223.3C167.601 1223.3 168.312 1222.1 168.312 1220.63C168.312 1219.15 167.601 1217.95 166.723 1217.95C165.845 1217.95 165.133 1219.15 165.133 1220.63C165.133 1222.1 165.845 1223.3 166.723 1223.3Z" fill="#FF7B72"/>
<path d="M171.411 1233.98C172.289 1233.98 173.001 1232.78 173.001 1231.31C173.001 1229.83 172.289 1228.63 171.411 1228.63C170.533 1228.63 169.821 1229.83 169.821 1231.31C169.821 1232.78 170.533 1233.98 171.411 1233.98Z" fill="#FF7B72"/>
<path d="M182.063 1224.87C182.941 1224.87 183.653 1223.67 183.653 1222.19C183.653 1220.71 182.941 1219.51 182.063 1219.51C181.185 1219.51 180.474 1220.71 180.474 1222.19C180.474 1223.67 181.185 1224.87 182.063 1224.87Z" fill="#FF7B72"/>
<path d="M188.817 1232.8C189.695 1232.8 190.407 1231.6 190.407 1230.12C190.407 1228.65 189.695 1227.45 188.817 1227.45C187.939 1227.45 187.227 1228.65 187.227 1230.12C187.227 1231.6 187.939 1232.8 188.817 1232.8Z" fill="#FF7B72"/>
<path d="M197.799 1225.91C198.677 1225.91 199.389 1224.71 199.389 1223.24C199.389 1221.76 198.677 1220.56 197.799 1220.56C196.921 1220.56 196.209 1221.76 196.209 1223.24C196.209 1224.71 196.921 1225.91 197.799 1225.91Z" fill="#FF7B72"/>
<path d="M205.083 1236.44C205.961 1236.44 206.673 1235.24 206.673 1233.77C206.673 1232.29 205.961 1231.09 205.083 1231.09C204.205 1231.09 203.493 1232.29 203.493 1233.77C203.493 1235.24 204.205 1236.44 205.083 1236.44Z" fill="#FF7B72"/>
<path d="M211.741 1224.81C212.619 1224.81 213.331 1223.61 213.331 1222.13C213.331 1220.66 212.619 1219.46 211.741 1219.46C210.863 1219.46 210.151 1220.66 210.151 1222.13C210.151 1223.61 210.863 1224.81 211.741 1224.81Z" fill="#FF7B72"/>
<path d="M204.241 1215.01C205.119 1215.01 205.831 1213.82 205.831 1212.34C205.831 1210.86 205.119 1209.66 204.241 1209.66C203.363 1209.66 202.651 1210.86 202.651 1212.34C202.651 1213.82 203.363 1215.01 204.241 1215.01Z" fill="#FF7B72"/>
<path d="M197.215 1203.4C198.093 1203.4 198.805 1202.2 198.805 1200.72C198.805 1199.24 198.093 1198.04 197.215 1198.04C196.337 1198.04 195.625 1199.24 195.625 1200.72C195.625 1202.2 196.337 1203.4 197.215 1203.4Z" fill="#FF7B72"/>
<path d="M194.321 1243.03C195.199 1243.03 195.911 1241.84 195.911 1240.36C195.911 1238.88 195.199 1237.68 194.321 1237.68C193.443 1237.68 192.731 1238.88 192.731 1240.36C192.731 1241.84 193.443 1243.03 194.321 1243.03Z" fill="#FF7B72"/>
<path d="M180.039 1241.23C180.917 1241.23 181.628 1240.03 181.628 1238.55C181.628 1237.07 180.917 1235.87 180.039 1235.87C179.161 1235.87 178.449 1237.07 178.449 1238.55C178.449 1240.03 179.161 1241.23 180.039 1241.23Z" fill="#FF7B72"/>
<path d="M191.928 1211.97C191.928 1213.45 191.222 1214.65 190.338 1214.65C189.455 1214.65 188.749 1213.45 188.749 1211.97C188.749 1210.49 189.455 1209.29 190.338 1209.29C191.222 1209.29 191.928 1210.49 191.928 1211.97Z" fill="#FF7B72"/>
<path d="M177.253 1211.12C177.253 1212.6 176.547 1213.79 175.664 1213.79C174.78 1213.79 174.074 1212.6 174.074 1211.12C174.074 1209.63 174.78 1208.44 175.664 1208.44C176.547 1208.44 177.253 1209.63 177.253 1211.12Z" fill="#FF7B72"/>
<path d="M189.162 1190.97C192.525 1184.6 192.202 1177.83 188.439 1175.84C184.676 1173.85 178.899 1177.41 175.535 1183.78C172.172 1190.15 172.496 1196.92 176.259 1198.91C180.022 1200.9 185.799 1197.34 189.162 1190.97Z" fill="white"/>
<path d="M287.985 1211.16C287.985 1226.52 273.88 1238.98 256.474 1238.98C239.067 1238.98 224.962 1226.52 224.962 1211.16C224.962 1195.79 239.067 1157.97 256.474 1157.97C273.88 1157.97 287.985 1195.79 287.985 1211.16Z" fill="#FFAD9B"/>
<path d="M295.988 1213.59C295.988 1229.66 280.389 1242.69 261.161 1242.69C241.934 1242.69 226.334 1229.66 226.334 1213.59C226.334 1197.51 241.934 1157.97 261.161 1157.97C280.389 1157.97 295.988 1197.51 295.988 1213.59Z" stroke="#FF7B72" stroke-width="3" stroke-miterlimit="10"/>
<path d="M236.499 1212.99C237.377 1212.99 238.089 1211.79 238.089 1210.31C238.089 1208.83 237.377 1207.64 236.499 1207.64C235.621 1207.64 234.909 1208.83 234.909 1210.31C234.909 1211.79 235.621 1212.99 236.499 1212.99Z" fill="#FF7B72"/>
<path d="M241.201 1223.66C242.079 1223.66 242.79 1222.46 242.79 1220.98C242.79 1219.5 242.079 1218.3 241.201 1218.3C240.323 1218.3 239.611 1219.5 239.611 1220.98C239.611 1222.46 240.323 1223.66 241.201 1223.66Z" fill="#FF7B72"/>
<path d="M251.854 1214.54C252.732 1214.54 253.444 1213.34 253.444 1211.86C253.444 1210.38 252.732 1209.19 251.854 1209.19C250.976 1209.19 250.264 1210.38 250.264 1211.86C250.264 1213.34 250.976 1214.54 251.854 1214.54Z" fill="#FF7B72"/>
<path d="M258.606 1222.47C259.484 1222.47 260.196 1221.28 260.196 1219.8C260.196 1218.32 259.484 1217.12 258.606 1217.12C257.728 1217.12 257.017 1218.32 257.017 1219.8C257.017 1221.28 257.728 1222.47 258.606 1222.47Z" fill="#FF7B72"/>
<path d="M267.576 1215.59C268.454 1215.59 269.165 1214.39 269.165 1212.91C269.165 1211.43 268.454 1210.23 267.576 1210.23C266.698 1210.23 265.986 1211.43 265.986 1212.91C265.986 1214.39 266.698 1215.59 267.576 1215.59Z" fill="#FF7B72"/>
<path d="M274.858 1226.12C275.736 1226.12 276.448 1224.92 276.448 1223.44C276.448 1221.96 275.736 1220.76 274.858 1220.76C273.98 1220.76 273.269 1221.96 273.269 1223.44C273.269 1224.92 273.98 1226.12 274.858 1226.12Z" fill="#FF7B72"/>
<path d="M281.531 1214.5C282.409 1214.5 283.121 1213.3 283.121 1211.82C283.121 1210.34 282.409 1209.14 281.531 1209.14C280.653 1209.14 279.941 1210.34 279.941 1211.82C279.941 1213.3 280.653 1214.5 281.531 1214.5Z" fill="#FF7B72"/>
<path d="M274.03 1204.69C274.908 1204.69 275.62 1203.49 275.62 1202.01C275.62 1200.53 274.908 1199.33 274.03 1199.33C273.152 1199.33 272.44 1200.53 272.44 1202.01C272.44 1203.49 273.152 1204.69 274.03 1204.69Z" fill="#FF7B72"/>
<path d="M267.004 1193.07C267.882 1193.07 268.594 1191.87 268.594 1190.39C268.594 1188.91 267.882 1187.72 267.004 1187.72C266.126 1187.72 265.414 1188.91 265.414 1190.39C265.414 1191.87 266.126 1193.07 267.004 1193.07Z" fill="#FF7B72"/>
<path d="M264.096 1232.72C264.974 1232.72 265.686 1231.52 265.686 1230.04C265.686 1228.57 264.974 1227.37 264.096 1227.37C263.218 1227.37 262.506 1228.57 262.506 1230.04C262.506 1231.52 263.218 1232.72 264.096 1232.72Z" fill="#FF7B72"/>
<path d="M249.829 1230.9C250.707 1230.9 251.419 1229.7 251.419 1228.22C251.419 1226.74 250.707 1225.55 249.829 1225.55C248.951 1225.55 248.239 1226.74 248.239 1228.22C248.239 1229.7 248.951 1230.9 249.829 1230.9Z" fill="#FF7B72"/>
<path d="M261.719 1201.64C261.719 1203.12 261.012 1204.32 260.129 1204.32C259.246 1204.32 258.539 1203.12 258.539 1201.64C258.539 1200.16 259.246 1198.97 260.129 1198.97C261.012 1198.97 261.719 1200.16 261.719 1201.64Z" fill="#FF7B72"/>
<path d="M247.03 1200.79C247.03 1202.27 246.324 1203.46 245.44 1203.46C244.557 1203.46 243.851 1202.27 243.851 1200.79C243.851 1199.31 244.557 1198.11 245.44 1198.11C246.324 1198.11 247.03 1199.31 247.03 1200.79Z" fill="#FF7B72"/>
<path d="M259.219 1181.49C262.582 1175.12 262.258 1168.34 258.495 1166.35C254.732 1164.37 248.955 1167.92 245.592 1174.29C242.229 1180.66 242.552 1187.44 246.315 1189.43C250.078 1191.41 255.855 1187.86 259.219 1181.49Z" fill="white"/>
<path d="M133.052 1218.64C132.128 1220.87 131.516 1223 128.703 1225.12C125.877 1227.24 121.977 1229.08 120.7 1231.05C119.423 1233.02 118.634 1234.28 118.811 1236.77C118.988 1239.27 120.007 1240.29 120.007 1240.29C120.007 1240.29 116.977 1242.29 116.189 1245.06C115.387 1247.82 115.523 1250.22 116.121 1251.78C116.718 1253.35 117.914 1256.28 121.787 1257.61C125.646 1258.95 135.552 1259.49 138.976 1259.45C142.4 1259.41 155.717 1259.33 160.024 1258.12C164.332 1256.91 167.525 1255.15 168.626 1251.88C169.726 1248.6 169.686 1245.09 168.137 1242.99C166.588 1240.9 164.386 1239.68 164.386 1239.68C164.386 1239.68 165.582 1238.39 165.65 1236.7C165.718 1235.02 165.446 1230.97 159.508 1226.59C153.57 1222.22 151.464 1212.87 143.949 1211.62C143.949 1211.62 140.389 1211.01 137.495 1212.16C135.375 1213.02 133.038 1218.64 133.038 1218.64H133.052Z" fill="#F9F1E4"/>
<path d="M137.427 1218.29C136.475 1220.59 135.85 1222.77 132.942 1224.96C130.034 1227.14 126.026 1229.02 124.721 1231.06C123.417 1233.1 122.602 1234.38 122.778 1236.95C122.955 1239.51 124.015 1240.56 124.015 1240.56C124.015 1240.56 120.903 1242.63 120.088 1245.47C119.273 1248.31 119.408 1250.78 120.02 1252.38C120.631 1253.99 121.868 1257 125.836 1258.37C129.803 1259.75 139.981 1260.3 143.514 1260.26C147.047 1260.22 160.73 1260.14 165.16 1258.89C169.59 1257.64 172.865 1255.85 174.006 1252.48C175.148 1249.11 175.107 1245.49 173.503 1243.33C171.914 1241.19 169.658 1239.94 169.658 1239.94C169.658 1239.94 170.895 1238.6 170.962 1236.86C171.03 1235.13 170.759 1230.97 164.657 1226.47C158.556 1221.97 156.382 1212.35 148.664 1211.06C148.664 1211.06 145.009 1210.44 142.033 1211.63C139.845 1212.51 137.44 1218.29 137.44 1218.29H137.427Z" stroke="#FF7B72" stroke-width="3" stroke-miterlimit="10"/>
<path d="M135.361 1228.59C135.361 1228.59 130.211 1231.7 129.396 1233.36C128.581 1235.02 128.458 1235.49 128.662 1236.7C128.88 1237.92 129.586 1239.45 130.442 1239.79C131.298 1240.13 134.954 1240.51 134.954 1240.51C134.954 1240.51 137.821 1239.85 138.378 1239.11C138.935 1238.36 137.25 1238.16 136.53 1237.18C135.81 1236.2 136.054 1234.07 137.386 1232.75C138.718 1231.43 140.634 1229.16 140.362 1228.32C139.886 1226.9 138.296 1227.15 137.698 1227.31C137.101 1227.47 135.348 1228.6 135.348 1228.6L135.361 1228.59Z" fill="white"/>
<path d="M130.905 1240.13C130.905 1240.13 125.958 1243.43 124.953 1245.75C123.947 1248.07 124.029 1248.73 124.287 1250.44C124.545 1252.14 125.578 1253.8 126.556 1254.45C127.344 1254.98 130.334 1255.28 130.334 1255.28C130.334 1255.28 132.97 1254.95 133.649 1253.9C134.329 1252.86 134.22 1251.64 133.622 1250.1C132.739 1247.84 133.622 1246.74 134.818 1244.9C136.177 1242.8 139.166 1240.98 139.139 1239.6C139.112 1238.22 137.386 1238.24 136.625 1238.26C134.37 1238.35 130.905 1240.11 130.905 1240.11V1240.13Z" fill="white"/>
<path d="M217.367 1218.64C216.443 1220.87 215.832 1223 213.019 1225.12C210.192 1227.24 206.293 1229.08 205.015 1231.05C203.738 1233.02 202.95 1234.28 203.126 1236.77C203.303 1239.26 204.322 1240.29 204.322 1240.29C204.322 1240.29 201.292 1242.29 200.504 1245.06C199.702 1247.82 199.838 1250.22 200.436 1251.78C201.034 1253.35 202.23 1256.28 206.102 1257.61C209.975 1258.95 219.867 1259.49 223.292 1259.45C226.716 1259.41 240.032 1259.33 244.34 1258.12C248.647 1256.91 251.841 1255.15 252.941 1251.88C254.042 1248.61 254.001 1245.09 252.452 1242.99C250.903 1240.9 248.702 1239.68 248.702 1239.68C248.702 1239.68 249.897 1238.39 249.965 1236.7C250.033 1235.02 249.762 1230.97 243.823 1226.59C237.885 1222.2 235.779 1212.87 228.265 1211.62C228.265 1211.62 224.705 1211.01 221.81 1212.16C219.691 1213.02 217.353 1218.64 217.353 1218.64H217.367Z" fill="#F9F1E4"/>
<path d="M221.742 1218.29C220.791 1220.59 220.166 1222.77 217.258 1224.96C214.35 1227.14 210.342 1229.02 209.037 1231.06C207.733 1233.1 206.918 1234.38 207.094 1236.95C207.271 1239.51 208.331 1240.56 208.331 1240.56C208.331 1240.56 205.219 1242.63 204.404 1245.47C203.588 1248.31 203.724 1250.78 204.336 1252.38C204.947 1253.99 206.184 1257 210.152 1258.37C214.119 1259.75 224.297 1260.3 227.83 1260.26C231.363 1260.22 245.046 1260.14 249.476 1258.89C253.906 1257.64 257.181 1255.85 258.322 1252.48C259.464 1249.11 259.423 1245.49 257.819 1243.33C256.23 1241.19 253.974 1239.94 253.974 1239.94C253.974 1239.94 255.21 1238.6 255.278 1236.86C255.346 1235.13 255.075 1230.97 248.973 1226.47C242.872 1221.97 240.698 1212.35 232.98 1211.06C232.98 1211.06 229.325 1210.44 226.349 1211.63C224.161 1212.51 221.756 1218.29 221.756 1218.29H221.742Z" stroke="#FF7B72" stroke-width="3" stroke-miterlimit="10"/>
<path d="M219.676 1228.59C219.676 1228.59 214.526 1231.7 213.71 1233.36C212.895 1235.02 212.773 1235.49 212.977 1236.7C213.181 1237.91 213.901 1239.45 214.757 1239.79C215.613 1240.13 219.268 1240.51 219.268 1240.51C219.268 1240.51 222.135 1239.85 222.692 1239.11C223.249 1238.36 221.564 1238.16 220.844 1237.18C220.124 1236.2 220.369 1234.07 221.7 1232.75C223.032 1231.43 224.948 1229.16 224.676 1228.32C224.201 1226.9 222.611 1227.15 222.013 1227.31C221.415 1227.48 219.662 1228.6 219.662 1228.6L219.676 1228.59Z" fill="white"/>
<path d="M215.22 1240.13C215.22 1240.13 210.274 1243.43 209.268 1245.75C208.263 1248.08 208.344 1248.73 208.602 1250.44C208.861 1252.14 209.893 1253.8 210.872 1254.45C211.66 1254.98 214.649 1255.28 214.649 1255.28C214.649 1255.28 217.285 1254.95 217.965 1253.9C218.644 1252.86 218.536 1251.64 217.938 1250.1C217.054 1247.84 217.938 1246.74 219.133 1244.9C220.492 1242.8 223.482 1240.98 223.454 1239.6C223.427 1238.22 221.702 1238.24 220.941 1238.26C218.685 1238.35 215.22 1240.11 215.22 1240.11V1240.13Z" fill="white"/>
<path d="M288.025 1197.76C287.101 1199.99 286.49 1202.12 283.677 1204.24C280.851 1206.36 276.951 1208.19 275.673 1210.16C274.396 1212.13 273.608 1213.4 273.785 1215.88C273.961 1218.38 274.98 1219.4 274.98 1219.4C274.98 1219.4 271.95 1221.4 271.162 1224.17C270.36 1226.93 270.496 1229.34 271.094 1230.9C271.692 1232.46 272.888 1235.4 276.761 1236.73C280.633 1238.06 290.525 1238.6 293.95 1238.56C297.374 1238.52 310.691 1238.44 314.998 1237.23C319.305 1236.02 322.499 1234.27 323.599 1230.99C324.7 1227.72 324.659 1224.2 323.11 1222.11C321.561 1220.02 319.36 1218.79 319.36 1218.79C319.36 1218.79 320.556 1217.5 320.624 1215.82C320.692 1214.13 320.42 1210.08 314.482 1205.71C308.544 1201.32 306.437 1191.98 298.923 1190.73C298.923 1190.73 295.363 1190.12 292.469 1191.28C290.349 1192.13 288.012 1197.76 288.012 1197.76H288.025Z" fill="#F9F1E4"/>
<path d="M292.401 1197.4C291.45 1199.7 290.825 1201.89 287.917 1204.08C285.009 1206.25 281.001 1208.14 279.696 1210.18C278.392 1212.22 277.576 1213.49 277.753 1216.06C277.93 1218.63 278.989 1219.68 278.989 1219.68C278.989 1219.68 275.878 1221.74 275.062 1224.58C274.247 1227.42 274.383 1229.89 274.995 1231.5C275.606 1233.1 276.843 1236.12 280.81 1237.49C284.778 1238.86 294.956 1239.42 298.489 1239.38C302.022 1239.34 315.705 1239.26 320.135 1238.01C324.565 1236.76 327.839 1234.96 328.981 1231.59C330.122 1228.22 330.081 1224.61 328.478 1222.45C326.888 1220.3 324.633 1219.05 324.633 1219.05C324.633 1219.05 325.869 1217.72 325.937 1215.98C326.005 1214.24 325.733 1210.08 319.632 1205.58C313.531 1201.07 311.357 1191.47 303.639 1190.18C303.639 1190.18 299.983 1189.55 297.008 1190.75C294.82 1191.63 292.415 1197.4 292.415 1197.4H292.401Z" stroke="#FF7B72" stroke-width="3" stroke-miterlimit="10"/>
<path d="M290.335 1207.7C290.335 1207.7 285.185 1210.82 284.37 1212.47C283.554 1214.13 283.432 1214.61 283.636 1215.82C283.853 1217.04 284.56 1218.56 285.416 1218.9C286.272 1219.24 289.927 1219.62 289.927 1219.62C289.927 1219.62 292.794 1218.97 293.351 1218.22C293.909 1217.47 292.224 1217.27 291.503 1216.29C290.783 1215.31 291.028 1213.18 292.36 1211.86C293.691 1210.54 295.607 1208.28 295.335 1207.43C294.86 1206.02 293.27 1206.26 292.672 1206.43C292.074 1206.59 290.321 1207.72 290.321 1207.72L290.335 1207.7Z" fill="white"/>
<path d="M285.892 1219.24C285.892 1219.24 280.946 1222.54 279.941 1224.87C278.935 1227.19 279.017 1227.84 279.275 1229.55C279.533 1231.25 280.566 1232.91 281.544 1233.56C282.332 1234.09 285.322 1234.39 285.322 1234.39C285.322 1234.39 287.958 1234.07 288.637 1233.02C289.317 1231.97 289.208 1230.75 288.61 1229.21C287.727 1226.96 288.61 1225.86 289.806 1224.01C291.165 1221.92 294.154 1220.1 294.127 1218.71C294.1 1217.34 292.374 1217.35 291.613 1217.38C289.357 1217.46 285.892 1219.23 285.892 1219.23V1219.24Z" fill="white"/>
<path d="M71.7415 1197.76C70.8175 1199.99 70.2061 1202.12 67.3933 1204.24C64.5669 1206.36 60.6671 1208.19 59.3898 1210.16C58.1125 1212.13 57.3244 1213.4 57.501 1215.88C57.6777 1218.37 58.6968 1219.4 58.6968 1219.4C58.6968 1219.4 55.6666 1221.4 54.8785 1224.17C54.0768 1226.93 54.2126 1229.34 54.8105 1230.9C55.4084 1232.46 56.6042 1235.4 60.4768 1236.73C64.3495 1238.06 74.2418 1238.6 77.666 1238.56C81.0903 1238.52 94.4068 1238.44 98.7143 1237.23C103.022 1236.02 106.215 1234.27 107.316 1230.99C108.416 1227.72 108.376 1224.2 106.827 1222.11C105.277 1220.02 103.076 1218.79 103.076 1218.79C103.076 1218.79 104.272 1217.5 104.34 1215.82C104.408 1214.13 104.136 1210.08 98.198 1205.71C92.2599 1201.32 90.1537 1191.98 82.6394 1190.73C82.6394 1190.73 79.0792 1190.12 76.1849 1191.28C74.0651 1192.13 71.7279 1197.76 71.7279 1197.76H71.7415Z" fill="#F9F1E4"/>
<path d="M76.1033 1197.4C75.1521 1199.7 74.527 1201.89 71.6192 1204.08C68.7113 1206.25 64.7027 1208.14 63.3982 1210.18C62.0938 1212.22 61.2785 1213.49 61.4551 1216.06C61.6318 1218.63 62.6916 1219.68 62.6916 1219.68C62.6916 1219.68 59.5799 1221.74 58.7646 1224.58C57.9493 1227.42 58.0852 1229.89 58.6967 1231.5C59.3082 1233.1 60.5447 1236.12 64.5125 1237.49C68.4803 1238.86 78.6579 1239.42 82.1908 1239.38C85.7238 1239.34 99.4072 1239.26 103.837 1238.01C108.267 1236.76 111.542 1234.96 112.683 1231.59C113.824 1228.22 113.784 1224.61 112.18 1222.45C110.577 1220.29 108.335 1219.05 108.335 1219.05C108.335 1219.05 109.571 1217.72 109.639 1215.98C109.707 1214.24 109.435 1210.08 103.334 1205.58C97.2331 1201.07 95.059 1191.47 87.3408 1190.18C87.3408 1190.18 83.6856 1189.55 80.7097 1190.75C78.522 1191.63 76.1169 1197.4 76.1169 1197.4H76.1033Z" stroke="#FF7B72" stroke-width="3" stroke-miterlimit="10"/>
<path d="M74.0507 1207.7C74.0507 1207.7 68.9008 1210.82 68.0855 1212.47C67.2702 1214.13 67.1479 1214.61 67.3517 1215.82C67.5555 1217.03 68.2757 1218.56 69.1318 1218.9C69.9878 1219.24 73.6431 1219.62 73.6431 1219.62C73.6431 1219.62 76.5102 1218.97 77.0673 1218.22C77.6244 1217.47 75.9395 1217.27 75.2193 1216.29C74.4991 1215.31 74.7437 1213.18 76.0754 1211.86C77.407 1210.54 79.323 1208.27 79.0512 1207.43C78.5756 1206.02 76.9858 1206.26 76.3879 1206.43C75.79 1206.59 74.0371 1207.72 74.0371 1207.72L74.0507 1207.7Z" fill="white"/>
<path d="M69.5945 1219.24C69.5945 1219.24 64.6484 1222.54 63.6428 1224.87C62.6373 1227.19 62.7188 1227.84 62.977 1229.55C63.2352 1231.25 64.2679 1232.91 65.2463 1233.56C66.0344 1234.09 69.0238 1234.39 69.0238 1234.39C69.0238 1234.39 71.6599 1234.07 72.3393 1233.02C73.0188 1231.97 72.91 1230.75 72.3122 1229.21C71.4289 1226.96 72.3122 1225.86 73.5079 1224.01C74.8668 1221.92 77.8562 1220.1 77.829 1218.71C77.8018 1217.34 76.0761 1217.35 75.3152 1217.38C73.0595 1217.46 69.5945 1219.23 69.5945 1219.23V1219.24Z" fill="white"/>
</svg>
