<svg width="54" height="12" viewBox="0 0 54 12" fill="none" xmlns="http://www.w3.org/2000/svg">
<path d="M8.21697 11.1533V1.15727H6.90897V3.76127H5.81697V4.90127H6.90897V6.41327H5.55297V7.55327H6.90897V11.1533H8.21697ZM10.353 11.6453V0.953265H9.02097V11.6453H10.353ZM5.70897 2.21327H1.66497V3.34127H4.35297C4.18497 5.46527 3.05697 7.33727 0.992973 8.58527L1.90497 9.55727C4.50897 7.84127 5.72097 5.40527 5.70897 2.21327ZM20.5558 9.50927C20.5558 8.17727 19.1758 7.36127 16.8118 7.36127C14.4478 7.36127 13.0678 8.17727 13.0678 9.50927C13.0678 10.8053 14.4478 11.6213 16.8118 11.6213C19.1758 11.6213 20.5558 10.8053 20.5558 9.50927ZM12.0118 2.86126H14.1358C14.0518 4.38527 13.0678 5.51327 11.5678 6.05327C11.8558 6.41327 12.1198 6.77327 12.4078 7.14527C13.4398 6.78527 14.5678 5.77727 14.8918 4.74527C15.3478 5.71727 16.3918 6.52127 17.2078 6.83327C17.4598 6.46127 17.7238 6.10127 17.9638 5.72927C16.7998 5.34527 15.7198 4.34927 15.6118 2.86126H17.6398V1.70927H12.0118V2.86126ZM17.4718 4.63727H19.0798V7.31327H20.4838V0.953265H19.0798V3.50927H17.4718V4.63727ZM16.8118 8.48927C18.2878 8.48927 19.1278 8.86127 19.1278 9.50927C19.1278 10.1333 18.2878 10.5053 16.8118 10.5053C15.3598 10.5053 14.5078 10.1333 14.5078 9.50927C14.5078 8.86127 15.3598 8.48927 16.8118 8.48927ZM35.0029 5.32127V4.15727H33.6469V0.953265H32.2549V8.89727H33.6469V5.32127H35.0029ZM33.9229 11.3573V10.2413H28.0309V8.21327H26.6149V11.3573H33.9229ZM31.7629 7.15727L31.6549 6.08927C30.9469 6.19727 29.3389 6.30527 28.3789 6.32927V4.21727H26.9869V6.36527C26.2909 6.37727 25.5709 6.38927 24.9349 6.38927L25.1149 7.52927C25.8229 7.52927 27.2029 7.46927 28.4389 7.42127C29.5669 7.38527 30.9949 7.24127 31.7629 7.15727ZM31.0549 1.70927H25.5949V2.82527H29.6389C29.6389 3.83327 29.5669 4.78127 29.4229 5.32127L30.7549 5.51327C30.9829 4.67327 31.0549 3.47326 31.0549 1.70927ZM42.9978 0.953265V11.6453H44.3898V0.953265H42.9978ZM42.0618 7.73327C40.6938 7.98527 38.5698 8.04527 37.5498 8.04527V5.87327H41.0418V1.86526H36.1098V2.98127H39.6258V4.75727H36.1578V9.19727H37.2858C39.0978 9.19727 41.0898 9.07727 42.2178 8.84927L42.0618 7.73327ZM53.8569 6.96527V5.86127L49.3209 3.06527V4.40927L52.4769 6.40127L49.3209 8.35727V9.74927L53.8569 6.96527Z" fill="#202020"/>
</svg>
