<svg width="206" height="44" viewBox="0 0 206 44" fill="none" xmlns="http://www.w3.org/2000/svg">
<path d="M6.592 1.84067H1.152V2.86467H5.344C5.312 3.64867 5.2 4.40067 4.992 5.13667L0.576 5.45668L0.848 6.56068L4.64 6.12867C3.904 7.84067 2.576 9.34468 0.48 10.4807L1.28 11.3767C4.88 9.16868 6.592 6.12867 6.592 1.84067ZM9.68 13.5207V0.576674H8.512V5.68068H6.352V6.68867H8.512V13.5207H9.68ZM12.4 14.2247V0.240675H11.2V14.2247H12.4ZM25.9558 14.2247V0.240675H24.7398V14.2247H25.9558ZM14.9158 6.22468C14.9158 9.20068 16.2278 11.1847 18.5158 11.1847C20.8358 11.1847 22.1318 9.20068 22.1318 6.24067C22.1318 3.28067 20.8358 1.29667 18.5158 1.29667C16.2278 1.29667 14.9158 3.28067 14.9158 6.22468ZM20.9798 6.24067C20.9798 8.52868 20.0038 10.1287 18.5158 10.1287C17.0438 10.1287 16.0678 8.52868 16.0678 6.24067C16.0678 3.93668 17.0438 2.35267 18.5158 2.35267C20.0038 2.35267 20.9798 3.93668 20.9798 6.24067ZM35.3835 1.68067H28.9355V2.68867H34.1035C34.0715 3.52067 33.9275 4.30468 33.7035 5.04068L28.3275 5.36067L28.5835 6.46467L33.3195 6.04868C32.3275 8.12867 30.5675 9.69668 28.2635 10.6887L29.0475 11.6167C32.8715 9.76068 35.3355 6.73667 35.3835 1.68067ZM38.5035 6.78468V14.2247H39.7195V0.240675H38.5035V5.74468H35.3355V6.78468H38.5035ZM54.7633 8.48068V7.45668H42.1393V8.48068H54.7633ZM53.4193 13.9207V12.9127H45.0033V9.79268H43.7873V13.9207H53.4193ZM53.3553 5.71268V4.70467H45.0513V0.832675H43.8353V5.71268H53.3553ZM72.8101 12.2087V11.1847H66.2181V6.12867H65.0021V11.1847H60.1861V12.2087H72.8101ZM71.1141 1.69667H61.4821V2.72067H69.8501V4.08068C69.8501 5.92067 69.6741 8.03268 69.3541 9.34468L70.5541 9.53668C70.9701 7.76067 71.0981 5.58467 71.1141 3.45667V1.69667ZM85.8219 8.49668V0.240675H84.6059V3.90467H82.8459V0.496675H81.6779V8.36868H82.8459V4.91267H84.6059V8.49668H85.8219ZM80.0779 1.29667H74.6699V2.30468H78.7819C78.5579 4.49667 76.9259 6.57667 74.1259 7.69667L74.9259 8.62468C78.1419 7.07268 80.0139 4.70467 80.0779 1.29667ZM85.8219 14.2247V9.21668H76.5099V10.2087H84.5899V14.2247H85.8219ZM99.2976 14.0167V8.89668H90.1296V14.0167H99.2976ZM98.0816 13.0087H91.3456V9.88868H98.0816V13.0087ZM98.0816 0.240675V8.01667H99.2976V0.240675H98.0816ZM96.7696 5.39267C94.9776 5.76067 91.8416 6.08068 89.8096 6.00067V0.960674H88.5936V7.07268H89.3936C91.8256 7.07268 95.3616 6.76867 96.9136 6.43267L96.7696 5.39267ZM114.821 7.12068V6.08068H112.549V0.240675H111.333V14.2247H112.549V7.12068H114.821ZM110.533 10.6887L110.437 9.68068C109.189 9.87268 107.429 10.0007 105.749 10.0807V5.69667H104.517V10.1127C103.477 10.1447 102.229 10.1287 101.461 10.1287L101.637 11.2007C102.805 11.2007 104.357 11.1527 105.765 11.0887C107.125 11.0087 109.189 10.8647 110.533 10.6887ZM109.477 1.71268H102.165V2.73668H108.245C108.309 4.30468 108.117 6.60868 107.813 7.96868L108.981 8.12867C109.285 6.76867 109.509 3.85668 109.477 1.71268ZM132.772 6.91267V5.88867H130.516V0.240675H129.3V14.2247H130.516V6.91267H132.772ZM127.972 9.88868C126.036 8.75268 124.276 6.46467 124.276 3.92068V1.47267H123.028V3.95267C123.028 6.43267 121.38 8.94467 119.348 10.1927L120.132 11.1367C121.78 9.98468 123.14 8.20867 123.636 6.46467C124.196 8.16068 125.764 9.82468 127.204 10.8167L127.972 9.88868ZM144.552 11.5527C144.552 9.87268 142.776 8.86468 139.848 8.86468C136.92 8.86468 135.16 9.87268 135.16 11.5527C135.16 13.2007 136.92 14.2087 139.848 14.2087C142.776 14.2087 144.552 13.2007 144.552 11.5527ZM133.688 2.27267H136.904C136.904 2.62467 136.888 2.89668 136.888 3.02467C136.824 4.88068 135.048 6.64068 133.288 7.31267L133.992 8.25668C135.496 7.61667 137.128 6.11268 137.512 4.80067C138.088 6.06467 139.512 7.32867 140.856 7.87267L141.528 6.89668C139.928 6.36867 138.264 4.83267 138.152 3.04068C138.136 2.89668 138.136 2.62467 138.136 2.27267H141.32V1.24867H133.688V2.27267ZM143.304 11.5527C143.304 12.5927 141.96 13.2007 139.848 13.2007C137.736 13.2007 136.424 12.5927 136.424 11.5527C136.424 10.4647 137.736 9.88868 139.848 9.88868C141.96 9.88868 143.304 10.4647 143.304 11.5527ZM146.52 5.13667V4.11267H144.36V0.240675H143.144V8.83267H144.36V5.13667H146.52ZM158.876 14.0167V8.89668H149.708V14.0167H158.876ZM157.66 13.0087H150.924V9.88868H157.66V13.0087ZM157.66 0.240675V8.01667H158.876V0.240675H157.66ZM156.348 5.39267C154.556 5.76067 151.42 6.08068 149.388 6.00067V0.960674H148.172V7.07268H148.972C151.404 7.07268 154.94 6.76867 156.492 6.43267L156.348 5.39267ZM173.92 7.31267V6.28867H161.296V7.31267H173.92ZM172.512 2.86467C172.512 1.32867 170.656 0.432674 167.616 0.432674C164.608 0.432674 162.752 1.32867 162.752 2.86467C162.752 4.40067 164.608 5.28067 167.616 5.28067C170.656 5.28067 172.512 4.40067 172.512 2.86467ZM167.616 1.42467C169.84 1.42467 171.28 1.98467 171.28 2.86467C171.28 3.72867 169.84 4.27267 167.616 4.27267C165.424 4.27267 164 3.72867 164 2.86467C164 1.98467 165.424 1.42467 167.616 1.42467ZM172.8 14.0967V13.1047H163.984V11.6967H172.336V8.56068H162.736V9.53668H171.12V10.7687H162.768V14.0967H172.8ZM190.766 9.56868V0.240675H189.55V9.56868H190.766ZM191.678 13.2647C189.63 12.9607 187.006 11.2967 187.006 9.32868V8.68867H185.726V9.32868C185.726 11.2967 183.262 12.9607 181.006 13.2327L181.582 14.2407C183.646 13.8407 185.79 12.4487 186.35 11.0887C186.926 12.3847 189.23 13.8727 191.07 14.2247L191.678 13.2647ZM183.374 1.23267C181.326 1.23267 179.742 2.65667 179.742 4.68867C179.742 6.72067 181.326 8.09667 183.374 8.09667C185.39 8.09667 186.99 6.72067 186.99 4.68867C186.99 2.65667 185.39 1.23267 183.374 1.23267ZM183.374 2.27267C184.814 2.27267 185.758 3.26468 185.758 4.68867C185.758 6.11268 184.814 7.05667 183.374 7.05667C181.982 7.05667 180.958 6.08068 180.958 4.67268C180.958 3.24867 181.966 2.27267 183.374 2.27267ZM205.81 8.48068V7.45668H193.186V8.48068H205.81ZM204.466 13.9207V12.9127H196.05V9.79268H194.834V13.9207H204.466ZM204.402 5.71268V4.70467H196.098V0.832675H194.882V5.71268H204.402ZM158.876 36.7287V29.2407H157.66V36.7287H158.876ZM158.892 43.0327V37.4967H157.676V39.2727H151.084V37.4967H149.868V43.0327H158.892ZM157.676 42.0407H151.084V40.2647H157.676V42.0407ZM151.42 29.9287C149.452 29.9287 147.82 31.2407 147.82 33.2087C147.82 35.1927 149.468 36.4407 151.42 36.4407C153.388 36.4407 155.004 35.1927 155.004 33.1927C155.004 31.2087 153.388 29.9287 151.42 29.9287ZM151.42 30.9847C152.86 30.9847 153.788 31.8967 153.788 33.2087C153.788 34.5367 152.844 35.4327 151.42 35.4327C150.044 35.4327 149.036 34.5367 149.036 33.1927C149.036 31.8807 150.044 30.9847 151.42 30.9847ZM172.624 29.2407H171.424V43.2247H172.624V29.2407ZM170 38.0887C168.336 38.4567 165.104 38.7127 163.312 38.7127V30.6967H162.08V39.7847H162.704C164.848 39.7847 168.496 39.5127 170.112 39.1447L170 38.0887ZM185.923 29.2407H184.707V43.2247H185.923V35.8167H188.195V34.7927H185.923V29.2407ZM176.915 38.7607V31.7207H182.323V30.6967H175.683V39.8007H177.059C179.491 39.8007 182.259 39.6087 183.763 39.3207L183.635 38.3127C182.291 38.6007 179.523 38.7607 177.715 38.7607H176.915ZM189.047 41.8327H190.439V40.4087H189.047V41.8327Z" fill="#202020"/>
<path d="M6.64 30.7927H1.152V32.2967H4.784C4.736 32.9207 4.64 33.5287 4.496 34.0887L0.544 34.4247L0.816 35.9767L3.952 35.5927C3.184 37.1607 1.952 38.4407 0.352 39.4967L1.44 40.7927C4.896 38.3927 6.64 34.9527 6.64 30.7927ZM9.76 42.7127V29.3847H8V34.7127H6.272V36.2167H8V42.7127H9.76ZM12.608 43.3687V29.1127H10.832V43.3687H12.608ZM26.0998 43.3687V29.1127H24.2438V43.3687H26.0998ZM14.7238 35.1927C14.7238 38.1847 16.0838 40.2647 18.4038 40.2647C20.7398 40.2647 22.0998 38.1687 22.0998 35.1927C22.0998 32.1847 20.7398 30.0887 18.4038 30.0887C16.0838 30.0887 14.7238 32.1847 14.7238 35.1927ZM20.3078 35.1927C20.3078 37.4327 19.5078 38.7607 18.4038 38.7607C17.3318 38.7607 16.5478 37.4327 16.5478 35.1927C16.5478 32.9367 17.3318 31.5927 18.4038 31.5927C19.5078 31.5927 20.3078 32.9367 20.3078 35.1927ZM39.5435 30.6647H29.7035V32.1367H37.6715C37.6715 32.8087 37.6395 33.6247 37.5915 34.4727C34.8075 34.6007 32.0075 34.7127 29.1915 34.8247L29.4315 36.3127C32.1195 36.1847 34.8235 36.0247 37.5115 35.8967C37.3995 37.1287 37.2555 38.3127 37.0475 39.1607C37.6395 39.2087 38.2635 39.2567 38.8395 39.3207C39.2555 37.6407 39.5435 34.2007 39.5435 30.6647ZM41.0475 41.4807V40.0087H28.1675V41.4807H41.0475ZM47.6064 35.8647C49.5584 35.6087 51.8944 34.3927 52.6464 32.9367C53.4304 34.2967 55.8784 35.5927 57.7344 35.8007C57.9904 35.3207 58.2624 34.8407 58.5184 34.3447C56.3904 34.1207 54.0064 32.9047 53.6704 31.2087H57.9264V29.7207H47.3664V31.2087H51.6224C51.3024 32.9047 48.9344 34.1847 46.7904 34.4087L47.6064 35.8647ZM53.5584 43.3527V38.3927H59.0944V36.9047H46.2144V38.3927H51.6704V43.3527H53.5584ZM71.2261 29.6567H61.7541V34.8087H71.2261V29.6567ZM67.5621 40.2487V37.6247H72.9381V36.1367H60.0581V37.6247H65.6901V40.2487H67.5621ZM71.4501 42.9847V41.5127H63.5781V38.9047H61.7061V42.9847H71.4501ZM69.3541 33.3207H63.6421V31.1447H69.3541V33.3207ZM80.9259 38.7287C79.2299 37.7207 78.3019 35.6887 78.3019 32.9047V32.2487H80.5259V30.7607H74.0939V32.2487H76.4939V32.9367C76.4939 35.7527 75.5819 37.7847 73.5499 39.1287L74.6859 40.3927C75.8379 39.7367 77.0539 38.0887 77.3899 36.7607C77.7419 38.0247 78.9419 39.4807 79.8699 40.0727L80.9259 38.7287ZM83.1819 42.7127V29.3847H81.4379V34.0247H79.5819V35.5607H81.4379V42.7127H83.1819ZM86.0459 43.3687V29.1127H84.2699V43.3687H86.0459ZM87.9216 31.5447H90.7856C90.6896 33.6087 89.3456 35.1447 87.3616 35.8647L88.4656 37.3207C89.8416 36.8567 91.3456 35.4967 91.7616 34.1207C92.3856 35.4327 93.7616 36.5047 94.8656 36.9367L95.8896 35.4487C94.3056 34.9367 92.8656 33.5767 92.7056 31.5447H95.4256V30.0247H87.9216V31.5447ZM89.5376 38.1367V39.6247H97.0256V43.3847H98.9136V38.1367H89.5376ZM100.93 34.0247V32.4887H98.8976V29.1127H97.0096V37.4167H98.8976V34.0247H100.93ZM118.673 36.8567V35.3527H105.793V36.8567H118.673ZM117.473 43.3047V41.7687H109.249V41.1127H117.041V37.6567H107.345V39.1287H115.185V39.8007H107.377V43.3047H117.473ZM117.345 34.6807V33.2087H115.361L115.729 31.5607L113.921 31.3047L113.617 33.2087H110.817L110.593 31.3047L108.769 31.5607L109.057 33.2087H107.073V34.6807H117.345ZM117.377 30.9047V29.4327H107.025V30.9047H117.377ZM131.748 38.6327V29.1127H129.972V32.6647H128.804V29.3687H127.06V37.4327H128.804V34.1687H129.972V38.6327H131.748ZM126.468 37.0647C126.404 36.5847 126.324 36.1207 126.276 35.6407C125.316 35.8807 123.284 36.0087 122.1 36.0087V34.4407H125.636V30.1047H120.18V31.5927H123.764V32.9847H120.228V37.4967C121.796 37.4967 124.964 37.4327 126.468 37.0647ZM132.372 42.0567C129.988 41.6567 127.844 40.3767 127.844 38.4087V38.0727H125.924V38.4087C125.924 40.3607 123.812 41.7207 121.316 42.0087L122.212 43.5127C124.228 43.1767 126.228 41.9767 126.852 40.6647C127.556 41.9607 129.572 43.1767 131.492 43.5127C131.78 43.0327 132.084 42.5527 132.372 42.0567ZM144.712 43.1927V38.4727H135.128V43.1927H144.712ZM145.032 35.0487V33.5607H143.08L143.512 31.5927L141.688 31.3047L141.336 33.5607H138.472L138.152 31.3047L136.36 31.5927L136.712 33.5607H134.76V35.0487H138.952V36.1207H133.48V37.6247H146.36V36.1207H140.824V35.0487H145.032ZM145.064 30.9047V29.4167H134.712V30.9047H145.064ZM142.872 41.7367H136.984V39.9127H142.872V41.7367Z" fill="#111111"/>
</svg>
