<svg width="380" height="390" viewBox="0 0 380 390" fill="none" xmlns="http://www.w3.org/2000/svg">
<path d="M264.443 123.764L233.196 142.551L242.152 113.088L196.553 114.721L229.282 97.0523L183.808 81.0072L229.926 80.7365L199.007 52.1028L243.865 69.3286L237.335 37.198L266.704 66.436L286.613 41.0228L291.161 72.9891L331.202 62.3496L309.481 86.9102L356.942 94.4211L315.848 103.759L355.652 127.053L308.249 118.211L327.758 149.878L289.085 125.664L282.109 155.657L264.443 123.764Z" fill="#FFF683"/>
<path d="M361.458 131.531L314.054 122.689L333.564 154.356L294.887 130.154L287.915 160.135L270.248 128.242L239.002 147.029L247.954 117.578L202.358 119.199L235.087 101.53L189.614 85.485L235.729 85.2269L204.813 56.5806L249.671 73.8064L243.14 41.6757L272.494 70.923L292.419 45.5006L296.95 77.4762L337.007 66.8273L315.287 91.388L362.747 98.8989L321.651 108.25L361.458 131.531Z" stroke="#FF7B72" stroke-width="3" stroke-miterlimit="10"/>
<path d="M49.0599 89.7454C49.0599 111.029 41.6099 111.029 41.6099 132.326C41.6099 153.623 49.0599 153.623 49.0599 174.907C49.0599 196.203 41.6099 196.204 41.6099 217.487" stroke="#FF7B72" stroke-width="3" stroke-miterlimit="10"/>
<path d="M78.8044 54.0739C80.6224 27.0069 65.1922 3.931 44.34 2.53237C23.4878 1.13373 5.10993 21.942 3.29188 49.009C1.47382 76.076 16.904 99.1519 37.7562 100.551C58.6085 101.949 76.9863 81.1409 78.8044 54.0739Z" fill="#B9FF83"/>
<path d="M46.3402 104.556C68.6906 104.556 86.8092 81.5125 86.8092 53.0866C86.8092 24.6607 68.6906 1.61694 46.3402 1.61694C23.9897 1.61694 5.87109 24.6607 5.87109 53.0866C5.87109 81.5125 23.9897 104.556 46.3402 104.556Z" stroke="#FF7B72" stroke-width="3" stroke-miterlimit="10"/>
<path d="M34.3238 31.3145C36.8945 24.8756 35.7219 18.3575 31.7049 16.756C27.6878 15.1545 22.3474 19.076 19.7767 25.5149C17.206 31.9538 18.3785 38.4719 22.3956 40.0734C26.4127 41.6749 31.7531 37.7534 34.3238 31.3145Z" fill="white"/>
<rect x="60.249" y="257.745" width="233.535" height="88.8813" fill="#F9F1E4"/>
<path d="M176.892 295.611C241.45 295.611 293.785 279.51 293.785 259.648C293.785 239.787 241.45 223.686 176.892 223.686C112.334 223.686 60 239.787 60 259.648C60 279.51 112.334 295.611 176.892 295.611Z" fill="#F9F1E4"/>
<path d="M293.8 346.626C293.8 366.48 241.461 382.589 176.907 382.589C112.353 382.589 60 366.495 60 346.626" fill="#F9F1E4"/>
<path d="M183.596 299.966C248.982 299.966 301.989 283.66 301.989 263.546C301.989 243.432 248.982 227.126 183.596 227.126C118.21 227.126 65.2036 243.432 65.2036 263.546C65.2036 283.66 118.21 299.966 183.596 299.966Z" stroke="#FF7B72" stroke-width="3" stroke-miterlimit="10"/>
<path d="M302 351.645C302 371.758 248.992 388.065 183.607 388.065C118.223 388.065 65.2036 371.758 65.2036 351.645" stroke="#FF7B72" stroke-width="3" stroke-miterlimit="10"/>
<path d="M65.2036 351.645V263.546" stroke="#FF7B72" stroke-width="3" stroke-miterlimit="10"/>
<path d="M302 263.546V351.645" stroke="#FF7B72" stroke-width="3" stroke-miterlimit="10"/>
<path d="M143.741 190.47H143.73C137.168 190.47 131.849 195.789 131.849 202.351V241C131.849 247.562 137.168 252.881 143.73 252.881H143.741C150.303 252.881 155.622 247.562 155.622 241V202.351C155.622 195.789 150.303 190.47 143.741 190.47Z" fill="#FFF683"/>
<path d="M153.1 177.609C153.1 182.024 149.125 185.594 144.226 185.594C139.327 185.594 135.352 182.024 135.352 177.609C135.352 173.195 139.327 158.791 144.226 158.791C149.125 158.791 153.1 173.206 153.1 177.609Z" fill="#FFAD9B"/>
<path d="M159.655 203.691C159.655 196.42 153.761 190.526 146.49 190.526C139.219 190.526 133.325 196.42 133.325 203.691V241.563C133.325 248.834 139.219 254.728 146.49 254.728C153.761 254.728 159.655 248.834 159.655 241.563V203.691Z" stroke="#FF7B72" stroke-width="3" stroke-miterlimit="10"/>
<path d="M156.861 177.294C156.861 181.832 152.458 185.504 147.03 185.504C141.602 185.504 137.198 181.821 137.198 177.294C137.198 172.767 141.59 157.935 147.018 157.935C152.446 157.935 156.85 172.755 156.85 177.294H156.861Z" stroke="#FF7B72" stroke-width="3" stroke-miterlimit="10"/>
<path d="M146.85 177.08V195.245" stroke="#FF7B72" stroke-width="3" stroke-miterlimit="10"/>
<path d="M178.315 190.47H178.303C171.742 190.47 166.422 195.789 166.422 202.351V241C166.422 247.562 171.742 252.881 178.303 252.881H178.315C184.876 252.881 190.195 247.562 190.195 241V202.351C190.195 195.789 184.876 190.47 178.315 190.47Z" fill="#B9FF83"/>
<path d="M187.662 177.609C187.662 182.024 183.687 185.594 178.788 185.594C173.889 185.594 169.914 182.024 169.914 177.609C169.914 173.195 173.889 158.791 178.788 158.791C183.687 158.791 187.662 173.206 187.662 177.609Z" fill="#FFAD9B"/>
<path d="M194.227 203.691C194.227 196.42 188.333 190.526 181.063 190.526C173.792 190.526 167.898 196.42 167.898 203.691V241.563C167.898 248.834 173.792 254.728 181.063 254.728C188.333 254.728 194.227 248.834 194.227 241.563V203.691Z" stroke="#FF7B72" stroke-width="3" stroke-miterlimit="10"/>
<path d="M191.423 177.294C191.423 181.832 187.02 185.504 181.592 185.504C176.164 185.504 171.76 181.821 171.76 177.294C171.76 172.767 176.164 157.935 181.592 157.935C187.02 157.935 191.423 172.755 191.423 177.294Z" stroke="#FF7B72" stroke-width="3" stroke-miterlimit="10"/>
<path d="M181.423 177.08V195.245" stroke="#FF7B72" stroke-width="3" stroke-miterlimit="10"/>
<path d="M212.887 190.47H212.876C206.314 190.47 200.995 195.789 200.995 202.351V241C200.995 247.562 206.314 252.881 212.876 252.881H212.887C219.449 252.881 224.768 247.562 224.768 241V202.351C224.768 195.789 219.449 190.47 212.887 190.47Z" fill="#9CE8FF"/>
<path d="M222.235 177.609C222.235 182.024 218.259 185.594 213.36 185.594C208.462 185.594 204.486 182.024 204.486 177.609C204.486 173.195 208.462 158.791 213.36 158.791C218.259 158.791 222.235 173.206 222.235 177.609Z" fill="#FFAD9B"/>
<path d="M228.8 203.691C228.8 196.42 222.906 190.526 215.635 190.526C208.364 190.526 202.47 196.42 202.47 203.691V241.563C202.47 248.834 208.364 254.728 215.635 254.728C222.906 254.728 228.8 248.834 228.8 241.563V203.691Z" stroke="#FF7B72" stroke-width="3" stroke-miterlimit="10"/>
<path d="M225.996 177.294C225.996 181.832 221.593 185.504 216.165 185.504C210.737 185.504 206.333 181.821 206.333 177.294C206.333 172.767 210.737 157.935 216.165 157.935C221.593 157.935 225.996 172.755 225.996 177.294Z" stroke="#FF7B72" stroke-width="3" stroke-miterlimit="10"/>
<path d="M215.996 177.08V195.245" stroke="#FF7B72" stroke-width="3" stroke-miterlimit="10"/>
<path d="M146.388 248.861C146.388 261.598 134.699 271.925 120.273 271.925C105.847 271.925 94.1572 261.598 94.1572 248.861C94.1572 236.124 105.847 204.783 120.273 204.783C134.699 204.783 146.388 236.124 146.388 248.861Z" fill="#FFAD9B"/>
<path d="M153.506 250.877C153.506 264.199 140.578 274.999 124.643 274.999C108.708 274.999 95.7793 264.199 95.7793 250.877C95.7793 237.555 108.708 204.783 124.643 204.783C140.578 204.783 153.506 237.555 153.506 250.877Z" stroke="#FF7B72" stroke-width="3" stroke-miterlimit="10"/>
<path d="M123.123 222.136C125.911 216.856 125.642 211.241 122.524 209.595C119.405 207.948 114.617 210.894 111.83 216.174C109.042 221.454 109.311 227.069 112.429 228.716C115.548 230.362 120.336 227.416 123.123 222.136Z" fill="white"/>
<path d="M103.718 250.381C104.446 250.381 105.036 249.388 105.036 248.163C105.036 246.937 104.446 245.944 103.718 245.944C102.991 245.944 102.401 246.937 102.401 248.163C102.401 249.388 102.991 250.381 103.718 250.381Z" fill="#FF7B72"/>
<path d="M107.615 259.221C108.343 259.221 108.933 258.228 108.933 257.003C108.933 255.778 108.343 254.784 107.615 254.784C106.887 254.784 106.297 255.778 106.297 257.003C106.297 258.228 106.887 259.221 107.615 259.221Z" fill="#FF7B72"/>
<path d="M116.433 251.665C117.161 251.665 117.75 250.672 117.75 249.447C117.75 248.221 117.161 247.228 116.433 247.228C115.705 247.228 115.115 248.221 115.115 249.447C115.115 250.672 115.705 251.665 116.433 251.665Z" fill="#FF7B72"/>
<path d="M122.04 258.242C122.768 258.242 123.358 257.248 123.358 256.023C123.358 254.798 122.768 253.805 122.04 253.805C121.313 253.805 120.723 254.798 120.723 256.023C120.723 257.248 121.313 258.242 122.04 258.242Z" fill="#FF7B72"/>
<path d="M129.474 252.532C130.202 252.532 130.791 251.539 130.791 250.314C130.791 249.088 130.202 248.095 129.474 248.095C128.746 248.095 128.156 249.088 128.156 250.314C128.156 251.539 128.746 252.532 129.474 252.532Z" fill="#FF7B72"/>
<path d="M135.509 261.26C136.237 261.26 136.827 260.267 136.827 259.042C136.827 257.816 136.237 256.823 135.509 256.823C134.782 256.823 134.192 257.816 134.192 259.042C134.192 260.267 134.782 261.26 135.509 261.26Z" fill="#FF7B72"/>
<path d="M141.028 251.631C141.755 251.631 142.345 250.638 142.345 249.413C142.345 248.188 141.755 247.194 141.028 247.194C140.3 247.194 139.71 248.188 139.71 249.413C139.71 250.638 140.3 251.631 141.028 251.631Z" fill="#FF7B72"/>
<path d="M134.823 243.501C135.551 243.501 136.141 242.507 136.141 241.282C136.141 240.057 135.551 239.063 134.823 239.063C134.095 239.063 133.505 240.057 133.505 241.282C133.505 242.507 134.095 243.501 134.823 243.501Z" fill="#FF7B72"/>
<path d="M128.989 233.872C129.717 233.872 130.307 232.879 130.307 231.653C130.307 230.428 129.717 229.435 128.989 229.435C128.261 229.435 127.671 230.428 127.671 231.653C127.671 232.879 128.261 233.872 128.989 233.872Z" fill="#FF7B72"/>
<path d="M126.59 266.733C127.318 266.733 127.908 265.74 127.908 264.514C127.908 263.289 127.318 262.296 126.59 262.296C125.862 262.296 125.272 263.289 125.272 264.514C125.272 265.74 125.862 266.733 126.59 266.733Z" fill="#FF7B72"/>
<path d="M114.755 265.224C115.482 265.224 116.072 264.231 116.072 263.005C116.072 261.78 115.482 260.787 114.755 260.787C114.027 260.787 113.437 261.78 113.437 263.005C113.437 264.231 114.027 265.224 114.755 265.224Z" fill="#FF7B72"/>
<path d="M124.608 240.978C124.608 242.205 124.023 243.196 123.291 243.196C122.559 243.196 121.973 242.205 121.973 240.978C121.973 239.75 122.559 238.759 123.291 238.759C124.023 238.759 124.608 239.75 124.608 240.978Z" fill="#FF7B72"/>
<path d="M112.446 240.268C112.446 241.496 111.861 242.487 111.129 242.487C110.397 242.487 109.811 241.496 109.811 240.268C109.811 239.041 110.397 238.05 111.129 238.05C111.861 238.05 112.446 239.041 112.446 240.268Z" fill="#FF7B72"/>
<path d="M204.723 257.42C204.723 270.156 193.033 280.483 178.607 280.483C164.181 280.483 152.492 270.156 152.492 257.42C152.492 244.683 164.181 213.342 178.607 213.342C193.033 213.342 204.723 244.683 204.723 257.42Z" fill="#FFAD9B"/>
<path d="M211.243 259.435C211.243 272.758 198.315 283.558 182.38 283.558C166.445 283.558 153.517 272.758 153.517 259.435C153.517 246.113 166.445 213.342 182.38 213.342C198.315 213.342 211.243 246.113 211.243 259.435Z" stroke="#FF7B72" stroke-width="3" stroke-miterlimit="10"/>
<path d="M161.839 258.929C162.566 258.929 163.156 257.935 163.156 256.71C163.156 255.485 162.566 254.492 161.839 254.492C161.111 254.492 160.521 255.485 160.521 256.71C160.521 257.935 161.111 258.929 161.839 258.929Z" fill="#FF7B72"/>
<path d="M165.724 267.78C166.452 267.78 167.042 266.787 167.042 265.562C167.042 264.336 166.452 263.343 165.724 263.343C164.997 263.343 164.407 264.336 164.407 265.562C164.407 266.787 164.997 267.78 165.724 267.78Z" fill="#FF7B72"/>
<path d="M174.553 260.224C175.281 260.224 175.871 259.231 175.871 258.005C175.871 256.78 175.281 255.787 174.553 255.787C173.825 255.787 173.235 256.78 173.235 258.005C173.235 259.231 173.825 260.224 174.553 260.224Z" fill="#FF7B72"/>
<path d="M180.15 266.801C180.877 266.801 181.467 265.807 181.467 264.582C181.467 263.357 180.877 262.364 180.15 262.364C179.422 262.364 178.832 263.357 178.832 264.582C178.832 265.807 179.422 266.801 180.15 266.801Z" fill="#FF7B72"/>
<path d="M187.594 261.091C188.322 261.091 188.912 260.098 188.912 258.872C188.912 257.647 188.322 256.654 187.594 256.654C186.866 256.654 186.276 257.647 186.276 258.872C186.276 260.098 186.866 261.091 187.594 261.091Z" fill="#FF7B72"/>
<path d="M193.631 269.819C194.358 269.819 194.948 268.825 194.948 267.6C194.948 266.375 194.358 265.382 193.631 265.382C192.903 265.382 192.313 266.375 192.313 267.6C192.313 268.825 192.903 269.819 193.631 269.819Z" fill="#FF7B72"/>
<path d="M199.148 260.179C199.876 260.179 200.466 259.185 200.466 257.96C200.466 256.735 199.876 255.741 199.148 255.741C198.42 255.741 197.831 256.735 197.831 257.96C197.831 259.185 198.42 260.179 199.148 260.179Z" fill="#FF7B72"/>
<path d="M192.932 252.059C193.66 252.059 194.25 251.066 194.25 249.841C194.25 248.615 193.66 247.622 192.932 247.622C192.205 247.622 191.615 248.615 191.615 249.841C191.615 251.066 192.205 252.059 192.932 252.059Z" fill="#FF7B72"/>
<path d="M187.11 242.43C187.838 242.43 188.428 241.437 188.428 240.212C188.428 238.987 187.838 237.993 187.11 237.993C186.382 237.993 185.792 238.987 185.792 240.212C185.792 241.437 186.382 242.43 187.11 242.43Z" fill="#FF7B72"/>
<path d="M184.712 275.281C185.439 275.281 186.029 274.288 186.029 273.062C186.029 271.837 185.439 270.844 184.712 270.844C183.984 270.844 183.394 271.837 183.394 273.062C183.394 274.288 183.984 275.281 184.712 275.281Z" fill="#FF7B72"/>
<path d="M172.875 273.783C173.602 273.783 174.192 272.789 174.192 271.564C174.192 270.339 173.602 269.346 172.875 269.346C172.147 269.346 171.557 270.339 171.557 271.564C171.557 272.789 172.147 273.783 172.875 273.783Z" fill="#FF7B72"/>
<path d="M182.728 249.537C182.728 250.764 182.143 251.755 181.411 251.755C180.679 251.755 180.093 250.764 180.093 249.537C180.093 248.309 180.679 247.318 181.411 247.318C182.143 247.318 182.728 248.309 182.728 249.537Z" fill="#FF7B72"/>
<path d="M170.566 248.827C170.566 250.055 169.981 251.046 169.249 251.046C168.517 251.046 167.931 250.055 167.931 248.827C167.931 247.6 168.517 246.609 169.249 246.609C169.981 246.609 170.566 247.6 170.566 248.827Z" fill="#FF7B72"/>
<path d="M180.436 232.133C183.223 226.853 182.955 221.238 179.836 219.592C176.718 217.946 171.93 220.891 169.142 226.172C166.355 231.452 166.623 237.067 169.742 238.713C172.861 240.359 177.648 237.414 180.436 232.133Z" fill="white"/>
<path d="M262.337 248.861C262.337 261.598 250.647 271.924 236.221 271.924C221.795 271.924 210.106 261.598 210.106 248.861C210.106 236.124 221.795 204.783 236.221 204.783C250.647 204.783 262.337 236.124 262.337 248.861Z" fill="#FFAD9B"/>
<path d="M268.97 250.877C268.97 264.199 256.042 274.999 240.106 274.999C224.171 274.999 211.243 264.199 211.243 250.877C211.243 237.554 224.171 204.783 240.106 204.783C256.042 204.783 268.97 237.554 268.97 250.877Z" stroke="#FF7B72" stroke-width="3" stroke-miterlimit="10"/>
<path d="M219.667 250.381C220.395 250.381 220.985 249.388 220.985 248.163C220.985 246.938 220.395 245.944 219.667 245.944C218.94 245.944 218.35 246.938 218.35 248.163C218.35 249.388 218.94 250.381 219.667 250.381Z" fill="#FF7B72"/>
<path d="M223.564 259.221C224.291 259.221 224.881 258.228 224.881 257.003C224.881 255.777 224.291 254.784 223.564 254.784C222.836 254.784 222.246 255.777 222.246 257.003C222.246 258.228 222.836 259.221 223.564 259.221Z" fill="#FF7B72"/>
<path d="M232.393 251.665C233.12 251.665 233.71 250.672 233.71 249.447C233.71 248.221 233.12 247.228 232.393 247.228C231.665 247.228 231.075 248.221 231.075 249.447C231.075 250.672 231.665 251.665 232.393 251.665Z" fill="#FF7B72"/>
<path d="M237.989 258.242C238.717 258.242 239.307 257.248 239.307 256.023C239.307 254.798 238.717 253.805 237.989 253.805C237.261 253.805 236.671 254.798 236.671 256.023C236.671 257.248 237.261 258.242 237.989 258.242Z" fill="#FF7B72"/>
<path d="M245.423 252.532C246.15 252.532 246.74 251.539 246.74 250.313C246.74 249.088 246.15 248.095 245.423 248.095C244.695 248.095 244.105 249.088 244.105 250.313C244.105 251.539 244.695 252.532 245.423 252.532Z" fill="#FF7B72"/>
<path d="M251.458 261.26C252.186 261.26 252.776 260.267 252.776 259.041C252.776 257.816 252.186 256.823 251.458 256.823C250.731 256.823 250.141 257.816 250.141 259.041C250.141 260.267 250.731 261.26 251.458 261.26Z" fill="#FF7B72"/>
<path d="M256.988 251.631C257.716 251.631 258.306 250.638 258.306 249.413C258.306 248.187 257.716 247.194 256.988 247.194C256.26 247.194 255.67 248.187 255.67 249.413C255.67 250.638 256.26 251.631 256.988 251.631Z" fill="#FF7B72"/>
<path d="M250.772 243.5C251.499 243.5 252.089 242.507 252.089 241.282C252.089 240.056 251.499 239.063 250.772 239.063C250.044 239.063 249.454 240.056 249.454 241.282C249.454 242.507 250.044 243.5 250.772 243.5Z" fill="#FF7B72"/>
<path d="M244.948 233.872C245.676 233.872 246.266 232.878 246.266 231.653C246.266 230.428 245.676 229.435 244.948 229.435C244.221 229.435 243.631 230.428 243.631 231.653C243.631 232.878 244.221 233.872 244.948 233.872Z" fill="#FF7B72"/>
<path d="M242.539 266.733C243.266 266.733 243.856 265.74 243.856 264.515C243.856 263.289 243.266 262.296 242.539 262.296C241.811 262.296 241.221 263.289 241.221 264.515C241.221 265.74 241.811 266.733 242.539 266.733Z" fill="#FF7B72"/>
<path d="M230.715 265.224C231.442 265.224 232.032 264.231 232.032 263.005C232.032 261.78 231.442 260.787 230.715 260.787C229.987 260.787 229.397 261.78 229.397 263.005C229.397 264.231 229.987 265.224 230.715 265.224Z" fill="#FF7B72"/>
<path d="M240.568 240.978C240.568 242.205 239.983 243.196 239.251 243.196C238.519 243.196 237.933 242.205 237.933 240.978C237.933 239.75 238.519 238.759 239.251 238.759C239.983 238.759 240.568 239.75 240.568 240.978Z" fill="#FF7B72"/>
<path d="M228.395 240.269C228.395 241.496 227.809 242.487 227.077 242.487C226.345 242.487 225.76 241.496 225.76 240.269C225.76 239.041 226.345 238.05 227.077 238.05C227.809 238.05 228.395 239.041 228.395 240.269Z" fill="#FF7B72"/>
<path d="M238.496 224.272C241.284 218.992 241.015 213.377 237.897 211.731C234.778 210.084 229.99 213.03 227.203 218.31C224.415 223.591 224.684 229.206 227.803 230.852C230.921 232.498 235.709 229.553 238.496 224.272Z" fill="white"/>
<path d="M133.934 255.066C133.168 256.913 132.661 258.681 130.33 260.438C127.987 262.194 124.755 263.715 123.697 265.348C122.638 266.981 121.985 268.028 122.131 270.089C122.278 272.161 123.123 273.005 123.123 273.005C123.123 273.005 120.611 274.661 119.958 276.958C119.294 279.244 119.406 281.238 119.902 282.533C120.397 283.828 121.388 286.26 124.598 287.364C127.796 288.468 136.006 288.918 138.844 288.884C141.682 288.85 152.718 288.783 156.288 287.781C159.858 286.778 162.504 285.326 163.416 282.612C164.328 279.898 164.295 276.981 163.011 275.247C161.727 273.512 159.903 272.499 159.903 272.499C159.903 272.499 160.894 271.429 160.95 270.032C161.006 268.636 160.781 265.28 155.86 261.654C150.938 258.028 149.193 250.28 142.965 249.244C142.965 249.244 140.015 248.737 137.616 249.694C135.859 250.404 133.922 255.066 133.922 255.066H133.934Z" fill="#F9F1E4"/>
<path d="M137.559 254.773C136.771 256.676 136.253 258.49 133.843 260.303C131.433 262.104 128.111 263.67 127.03 265.359C125.949 267.048 125.273 268.107 125.419 270.235C125.566 272.364 126.444 273.231 126.444 273.231C126.444 273.231 123.865 274.943 123.19 277.296C122.514 279.65 122.627 281.7 123.133 283.028C123.64 284.357 124.665 286.857 127.953 287.995C131.242 289.132 139.676 289.594 142.604 289.56C145.532 289.526 156.873 289.459 160.544 288.423C164.215 287.387 166.929 285.9 167.875 283.107C168.821 280.314 168.788 277.319 167.459 275.528C166.141 273.749 164.272 272.713 164.272 272.713C164.272 272.713 165.296 271.609 165.353 270.168C165.409 268.726 165.184 265.28 160.127 261.553C155.071 257.825 153.269 249.852 146.873 248.782C146.873 248.782 143.843 248.264 141.377 249.255C139.564 249.987 137.571 254.773 137.571 254.773H137.559Z" stroke="#FF7B72" stroke-width="3" stroke-miterlimit="10"/>
<path d="M135.848 263.309C135.848 263.309 131.58 265.888 130.904 267.262C130.228 268.636 130.127 269.03 130.296 270.032C130.476 271.046 131.062 272.307 131.771 272.589C132.481 272.87 135.51 273.186 135.51 273.186C135.51 273.186 137.886 272.645 138.348 272.026C138.81 271.406 137.413 271.237 136.816 270.427C136.219 269.616 136.422 267.848 137.526 266.755C138.629 265.663 140.217 263.782 139.992 263.084C139.598 261.913 138.28 262.116 137.785 262.251C137.289 262.386 135.837 263.321 135.837 263.321L135.848 263.309Z" fill="white"/>
<path d="M132.154 272.871C132.154 272.871 128.055 275.607 127.222 277.533C126.388 279.459 126.456 279.999 126.67 281.418C126.884 282.826 127.74 284.2 128.551 284.74C129.204 285.179 131.681 285.427 131.681 285.427C131.681 285.427 133.866 285.157 134.429 284.29C134.992 283.423 134.902 282.409 134.407 281.137C133.675 279.267 134.407 278.355 135.398 276.823C136.524 275.089 139.001 273.58 138.979 272.431C138.956 271.294 137.526 271.305 136.895 271.328C135.026 271.395 132.154 272.859 132.154 272.859V272.871Z" fill="white"/>
<path d="M203.811 255.066C203.045 256.913 202.538 258.681 200.207 260.438C197.865 262.195 194.633 263.715 193.574 265.348C192.516 266.981 191.863 268.028 192.009 270.089C192.155 272.15 193 273.006 193 273.006C193 273.006 190.489 274.661 189.835 276.959C189.171 279.245 189.284 281.238 189.779 282.533C190.275 283.828 191.266 286.261 194.475 287.364C197.685 288.468 205.883 288.918 208.721 288.884C211.559 288.851 222.595 288.783 226.165 287.781C229.735 286.779 232.382 285.326 233.294 282.612C234.206 279.898 234.172 276.981 232.888 275.247C231.604 273.512 229.78 272.499 229.78 272.499C229.78 272.499 230.771 271.429 230.827 270.033C230.884 268.636 230.659 265.28 225.737 261.654C220.816 258.017 219.07 250.28 212.843 249.244C212.843 249.244 209.892 248.737 207.494 249.694C205.737 250.404 203.8 255.066 203.8 255.066H203.811Z" fill="#F9F1E4"/>
<path d="M207.437 254.773C206.649 256.676 206.131 258.49 203.721 260.303C201.311 262.104 197.989 263.67 196.908 265.359C195.827 267.048 195.151 268.107 195.297 270.235C195.444 272.364 196.322 273.231 196.322 273.231C196.322 273.231 193.743 274.943 193.068 277.296C192.392 279.65 192.504 281.7 193.011 283.028C193.518 284.357 194.543 286.857 197.831 287.995C201.12 289.132 209.554 289.594 212.482 289.56C215.41 289.526 226.751 289.459 230.422 288.423C234.093 287.387 236.807 285.9 237.753 283.107C238.699 280.314 238.665 277.319 237.337 275.528C236.019 273.749 234.15 272.713 234.15 272.713C234.15 272.713 235.174 271.609 235.231 270.168C235.287 268.726 235.062 265.28 230.005 261.553C224.949 257.825 223.147 249.852 216.751 248.782C216.751 248.782 213.721 248.264 211.255 249.255C209.442 249.987 207.449 254.773 207.449 254.773H207.437Z" stroke="#FF7B72" stroke-width="3" stroke-miterlimit="10"/>
<path d="M205.725 263.31C205.725 263.31 201.457 265.888 200.781 267.262C200.105 268.636 200.004 269.03 200.173 270.033C200.342 271.035 200.939 272.308 201.648 272.589C202.358 272.871 205.387 273.186 205.387 273.186C205.387 273.186 207.763 272.645 208.225 272.026C208.687 271.407 207.29 271.238 206.693 270.427C206.096 269.616 206.299 267.848 207.403 266.756C208.506 265.663 210.094 263.783 209.869 263.084C209.475 261.913 208.157 262.116 207.662 262.251C207.166 262.386 205.713 263.321 205.713 263.321L205.725 263.31Z" fill="white"/>
<path d="M202.032 272.871C202.032 272.871 197.933 275.607 197.099 277.533C196.266 279.459 196.333 279.999 196.547 281.418C196.761 282.826 197.617 284.2 198.428 284.74C199.081 285.179 201.559 285.427 201.559 285.427C201.559 285.427 203.743 285.157 204.307 284.29C204.87 283.423 204.78 282.409 204.284 281.137C203.552 279.267 204.284 278.355 205.275 276.823C206.401 275.089 208.879 273.58 208.856 272.431C208.834 271.294 207.403 271.305 206.773 271.328C204.903 271.395 202.032 272.859 202.032 272.859V272.871Z" fill="white"/>
<path d="M262.371 237.757C261.605 239.604 261.098 241.372 258.767 243.129C256.425 244.886 253.192 246.406 252.134 248.039C251.075 249.672 250.422 250.719 250.569 252.78C250.715 254.852 251.56 255.697 251.56 255.697C251.56 255.697 249.048 257.352 248.395 259.65C247.731 261.936 247.843 263.929 248.339 265.224C248.834 266.519 249.825 268.952 253.035 270.055C256.244 271.159 264.443 271.609 267.281 271.576C270.119 271.542 281.155 271.474 284.725 270.472C288.295 269.47 290.941 268.017 291.853 265.303C292.765 262.589 292.732 259.672 291.448 257.938C290.164 256.204 288.34 255.19 288.34 255.19C288.34 255.19 289.331 254.12 289.387 252.724C289.443 251.327 289.218 247.971 284.297 244.345C279.376 240.708 277.63 232.971 271.402 231.935C271.402 231.935 268.452 231.428 266.053 232.386C264.296 233.095 262.359 237.757 262.359 237.757H262.371Z" fill="#F9F1E4"/>
<path d="M265.997 237.464C265.209 239.368 264.691 241.181 262.281 242.994C259.871 244.796 256.549 246.361 255.468 248.05C254.387 249.739 253.711 250.798 253.857 252.926C254.004 255.055 254.882 255.922 254.882 255.922C254.882 255.922 252.303 257.634 251.628 259.987C250.952 262.341 251.065 264.391 251.571 265.72C252.078 267.048 253.103 269.548 256.391 270.686C259.68 271.823 268.114 272.285 271.042 272.251C273.97 272.217 285.311 272.15 288.982 271.114C292.653 270.078 295.367 268.591 296.313 265.798C297.259 263.006 297.226 260.01 295.897 258.219C294.579 256.44 292.71 255.404 292.71 255.404C292.71 255.404 293.734 254.3 293.791 252.859C293.847 251.417 293.622 247.971 288.565 244.244C283.509 240.505 281.707 232.543 275.311 231.473C275.311 231.473 272.281 230.955 269.815 231.946C268.002 232.678 266.009 237.464 266.009 237.464H265.997Z" stroke="#FF7B72" stroke-width="3" stroke-miterlimit="10"/>
<path d="M264.285 246.001C264.285 246.001 260.017 248.58 259.341 249.954C258.665 251.327 258.564 251.722 258.733 252.724C258.913 253.737 259.499 254.999 260.208 255.28C260.918 255.562 263.947 255.877 263.947 255.877C263.947 255.877 266.323 255.337 266.785 254.717C267.247 254.098 265.85 253.929 265.253 253.118C264.656 252.307 264.859 250.539 265.963 249.447C267.066 248.354 268.654 246.474 268.429 245.775C268.035 244.604 266.717 244.807 266.222 244.942C265.726 245.077 264.274 246.012 264.274 246.012L264.285 246.001Z" fill="white"/>
<path d="M260.603 255.562C260.603 255.562 256.504 258.298 255.67 260.224C254.837 262.15 254.905 262.69 255.119 264.109C255.333 265.517 256.189 266.891 256.999 267.431C257.653 267.871 260.13 268.118 260.13 268.118C260.13 268.118 262.315 267.848 262.878 266.981C263.441 266.114 263.351 265.1 262.855 263.828C262.123 261.958 262.855 261.046 263.846 259.515C264.973 257.78 267.45 256.271 267.428 255.123C267.405 253.985 265.975 253.996 265.344 254.019C263.475 254.086 260.603 255.55 260.603 255.55V255.562Z" fill="white"/>
<path d="M83.1216 237.757C82.3558 239.604 81.849 241.372 79.5179 243.129C77.1755 244.886 73.9434 246.406 72.8848 248.039C71.8262 249.672 71.1731 250.719 71.3195 252.78C71.4659 254.841 72.3105 255.697 72.3105 255.697C72.3105 255.697 69.7992 257.352 69.146 259.649C68.4816 261.936 68.5942 263.929 69.0897 265.224C69.5852 266.519 70.5762 268.951 73.7858 270.055C76.9953 271.159 85.1937 271.609 88.0316 271.575C90.8695 271.542 101.906 271.474 105.476 270.472C109.046 269.47 111.692 268.017 112.604 265.303C113.516 262.589 113.483 259.672 112.199 257.938C110.915 256.203 109.091 255.19 109.091 255.19C109.091 255.19 110.082 254.12 110.138 252.724C110.194 251.327 109.969 247.971 105.048 244.345C100.126 240.708 98.3809 232.971 92.1533 231.935C92.1533 231.935 89.2028 231.428 86.8041 232.385C85.0473 233.095 83.1103 237.757 83.1103 237.757H83.1216Z" fill="#F9F1E4"/>
<path d="M86.7366 237.464C85.9483 239.368 85.4302 241.181 83.0203 242.994C80.6103 244.796 77.2881 246.361 76.207 248.05C75.1259 249.739 74.4502 250.798 74.5966 252.926C74.743 255.055 75.6214 255.922 75.6214 255.922C75.6214 255.922 73.0425 257.634 72.3668 259.987C71.6912 262.341 71.8038 264.391 72.3105 265.72C72.8173 267.048 73.8421 269.548 77.1305 270.686C80.4188 271.823 88.8537 272.285 91.7817 272.251C94.7097 272.217 106.05 272.15 109.721 271.114C113.393 270.078 116.107 268.591 117.053 265.798C117.999 263.006 117.965 260.01 116.636 258.219C115.307 256.429 113.449 255.404 113.449 255.404C113.449 255.404 114.474 254.3 114.53 252.859C114.586 251.417 114.361 247.971 109.305 244.244C104.248 240.505 102.446 232.543 96.0498 231.473C96.0498 231.473 93.0205 230.955 90.5542 231.946C88.7411 232.678 86.7478 237.464 86.7478 237.464H86.7366Z" stroke="#FF7B72" stroke-width="3" stroke-miterlimit="10"/>
<path d="M85.0353 246C85.0353 246 80.7672 248.579 80.0915 249.953C79.4158 251.327 79.3144 251.721 79.4834 252.724C79.6523 253.726 80.2491 254.998 80.9586 255.28C81.6681 255.562 84.6974 255.877 84.6974 255.877C84.6974 255.877 87.0736 255.336 87.5354 254.717C87.9971 254.098 86.6006 253.929 86.0038 253.118C85.4069 252.307 85.6096 250.539 86.7133 249.447C87.8169 248.354 89.4048 246.473 89.1795 245.775C88.7854 244.604 87.4678 244.807 86.9723 244.942C86.4768 245.077 85.024 246.012 85.024 246.012L85.0353 246Z" fill="white"/>
<path d="M81.3423 255.561C81.3423 255.561 77.2431 258.298 76.4097 260.224C75.5764 262.149 75.644 262.69 75.8579 264.109C76.0719 265.517 76.9278 266.891 77.7386 267.431C78.3918 267.87 80.8693 268.118 80.8693 268.118C80.8693 268.118 83.054 267.848 83.6171 266.981C84.1802 266.114 84.0901 265.1 83.5946 263.827C82.8626 261.958 83.5946 261.046 84.5856 259.514C85.7118 257.78 88.1893 256.271 88.1668 255.122C88.1443 253.985 86.714 253.996 86.0834 254.019C84.214 254.086 81.3423 255.55 81.3423 255.55V255.561Z" fill="white"/>
</svg>
