<svg width="9" height="15" viewBox="0 0 9 15" fill="none" xmlns="http://www.w3.org/2000/svg">
<path d="M6.07507 13.8408C6.53946 14.3517 7.33002 14.3893 7.84084 13.9249C8.35166 13.4605 8.38931 12.67 7.92493 12.1592L6.07507 13.8408ZM2 7.5L1.07508 6.65916L0.310675 7.5L1.07508 8.34084L2 7.5ZM7.92493 2.84084C8.38931 2.33002 8.35166 1.53946 7.84084 1.07507C7.33002 0.610691 6.53946 0.648336 6.07508 1.15916L7.92493 2.84084ZM7.92493 12.1592L2.92493 6.65916L1.07508 8.34084L6.07507 13.8408L7.92493 12.1592ZM2.92493 8.34084L7.92493 2.84084L6.07508 1.15916L1.07508 6.65916L2.92493 8.34084Z" fill="#FF7B72"/>
</svg>
