<svg width="361" height="385" viewBox="0 0 361 385" fill="none" xmlns="http://www.w3.org/2000/svg">
<path d="M192.506 123.179L77.3083 185.504L97.5532 275.321L284.299 233.229L264.054 143.411L192.506 123.179Z" fill="#F9F1E4"/>
<path d="M273.112 182.621L86.8242 224.611L91.9489 247.347L278.237 205.357L273.112 182.621Z" fill="#FFAD9B"/>
<path d="M271.891 148.421L85.1455 190.514L105.393 280.345L292.139 238.252L271.891 148.421Z" stroke="#FF7B72" stroke-width="3" stroke-miterlimit="10"/>
<path d="M85.1457 190.514L200.357 128.187L271.905 148.418" stroke="#FF7B72" stroke-width="3" stroke-miterlimit="10"/>
<path d="M234.019 126.4C235.437 139.95 224.155 152.226 208.804 153.83C193.453 155.434 179.875 145.752 178.473 132.212C177.071 118.672 186.004 84.025 201.342 82.4236C216.68 80.8222 232.601 112.85 234.016 126.387L234.019 126.4Z" fill="#FFAD9B"/>
<path d="M241.303 127.796C242.792 141.963 230.239 154.882 213.29 156.654C196.341 158.426 181.389 148.38 179.916 134.224C178.444 120.067 188.529 83.7585 205.478 81.9864C222.427 80.2143 239.815 113.629 241.3 127.783L241.303 127.796Z" stroke="#FF7B72" stroke-width="3" stroke-miterlimit="10"/>
<path d="M189.965 130.237C189.828 128.933 189.091 127.942 188.317 128.023C187.544 128.104 187.027 129.226 187.164 130.53C187.3 131.834 188.038 132.825 188.811 132.744C189.585 132.663 190.101 131.541 189.965 130.237Z" fill="#FF7B72"/>
<path d="M195.084 139.211C194.948 137.908 194.21 136.916 193.437 136.997C192.663 137.078 192.147 138.201 192.283 139.504C192.42 140.808 193.157 141.799 193.931 141.718C194.704 141.638 195.221 140.515 195.084 139.211Z" fill="#FF7B72"/>
<path d="M203.634 130.204C203.498 128.9 202.761 127.909 201.987 127.99C201.214 128.071 200.697 129.193 200.834 130.497C200.97 131.801 201.708 132.792 202.481 132.711C203.254 132.63 203.771 131.508 203.634 130.204Z" fill="#FF7B72"/>
<path d="M210.317 136.558C210.18 135.254 209.443 134.263 208.669 134.344C207.896 134.425 207.379 135.547 207.516 136.851C207.652 138.155 208.39 139.146 209.163 139.065C209.937 138.984 210.453 137.862 210.317 136.558Z" fill="#FF7B72"/>
<path d="M217.586 129.662C217.45 128.358 216.712 127.367 215.939 127.448C215.165 127.529 214.649 128.651 214.785 129.955C214.922 131.259 215.659 132.25 216.433 132.169C217.206 132.088 217.723 130.966 217.586 129.662Z" fill="#FF7B72"/>
<path d="M224.989 138.281C224.853 136.977 224.116 135.985 223.342 136.066C222.569 136.147 222.052 137.27 222.189 138.574C222.325 139.877 223.063 140.869 223.836 140.788C224.609 140.707 225.126 139.584 224.989 138.281Z" fill="#FF7B72"/>
<path d="M229.784 127.431C229.648 126.127 228.91 125.136 228.137 125.217C227.363 125.297 226.847 126.42 226.983 127.724C227.119 129.027 227.857 130.019 228.63 129.938C229.404 129.857 229.92 128.734 229.784 127.431Z" fill="#FF7B72"/>
<path d="M222.273 119.472C222.136 118.168 221.399 117.177 220.625 117.258C219.852 117.339 219.335 118.461 219.472 119.765C219.608 121.069 220.346 122.06 221.119 121.979C221.893 121.898 222.409 120.776 222.273 119.472Z" fill="#FF7B72"/>
<path d="M214.998 109.877C214.862 108.573 214.124 107.582 213.351 107.663C212.577 107.744 212.061 108.866 212.197 110.17C212.334 111.474 213.071 112.465 213.845 112.384C214.618 112.303 215.135 111.181 214.998 109.877Z" fill="#FF7B72"/>
<path d="M216.1 145.077C215.963 143.774 215.226 142.782 214.452 142.863C213.679 142.944 213.163 144.067 213.299 145.37C213.435 146.674 214.173 147.665 214.946 147.584C215.72 147.504 216.236 146.381 216.1 145.077Z" fill="#FF7B72"/>
<path d="M203.355 144.799C203.218 143.496 202.481 142.504 201.707 142.585C200.934 142.666 200.417 143.789 200.554 145.092C200.69 146.396 201.428 147.388 202.201 147.307C202.975 147.226 203.491 146.103 203.355 144.799Z" fill="#FF7B72"/>
<path d="M209.985 120.431C209.848 119.127 209.111 118.136 208.337 118.217C207.564 118.298 207.047 119.42 207.184 120.724C207.32 122.028 208.058 123.019 208.831 122.938C209.605 122.857 210.121 121.735 209.985 120.431Z" fill="#FF7B72"/>
<path d="M196.963 121.022C196.826 119.718 196.089 118.727 195.315 118.808C194.542 118.889 194.025 120.012 194.162 121.315C194.298 122.619 195.036 123.61 195.809 123.529C196.583 123.448 197.099 122.326 196.963 121.022Z" fill="#FF7B72"/>
<path d="M205.931 102.908C208.308 96.9826 207.399 91.0417 203.9 89.6382C200.401 88.2348 195.638 91.9003 193.261 97.8253C190.884 103.75 191.794 109.691 195.293 111.095C198.791 112.498 203.555 108.833 205.931 102.908Z" fill="white"/>
<path d="M161.689 129.411C161.329 131.471 161.222 133.379 159.256 135.691C157.289 138.004 154.343 140.304 153.645 142.207C152.947 144.11 152.518 145.32 153.137 147.394C153.755 149.468 154.813 150.136 154.813 150.136C154.813 150.136 152.643 152.399 152.5 154.878C152.358 157.357 152.917 159.348 153.725 160.554C154.533 161.76 156.095 163.992 159.592 164.386C163.09 164.78 171.54 163.356 174.422 162.666C177.304 161.975 188.501 159.382 191.895 157.545C195.288 155.708 197.65 153.622 197.957 150.653C198.264 147.683 197.568 144.72 195.865 143.261C194.161 141.803 192.084 141.186 192.084 141.186C192.084 141.186 192.844 139.86 192.577 138.435C192.311 137.011 191.319 133.647 185.49 131.084C179.662 128.521 176.107 121.047 169.54 121.428C169.54 121.428 166.426 121.58 164.214 123.109C162.584 124.233 161.689 129.411 161.689 129.411Z" fill="#F9F1E4"/>
<path d="M165.3 128.294C164.939 130.41 164.831 132.373 162.798 134.756C160.764 137.138 157.736 139.498 157.023 141.459C156.31 143.421 155.875 144.66 156.505 146.786C157.136 148.912 158.226 149.601 158.226 149.601C158.226 149.601 156.002 151.931 155.848 154.481C155.694 157.031 156.281 159.084 157.108 160.314C157.935 161.543 159.543 163.861 163.151 164.258C166.76 164.654 175.435 163.193 178.396 162.485C181.356 161.776 192.867 159.113 196.372 157.223C199.878 155.333 202.283 153.197 202.611 150.14C202.94 147.083 202.2 144.047 200.459 142.542C198.718 141.038 196.569 140.409 196.569 140.409C196.569 140.409 197.349 139.051 197.087 137.584C196.825 136.117 195.799 132.664 189.8 130.016C183.801 127.368 180.147 119.697 173.401 120.077C173.401 120.077 170.192 120.236 167.921 121.807C166.257 122.965 165.327 128.288 165.327 128.288L165.3 128.294Z" stroke="#FF7B72" stroke-width="3" stroke-miterlimit="10"/>
<path d="M165.515 137.36C165.515 137.36 161.775 140.952 161.397 142.508C161.019 144.064 161.003 144.48 161.416 145.459C161.829 146.438 162.723 147.598 163.507 147.723C164.292 147.849 167.45 147.467 167.45 147.467C167.45 147.467 169.746 146.372 170.075 145.638C170.405 144.904 168.954 145.052 168.153 144.367C167.352 143.681 167.171 141.839 168.032 140.476C168.894 139.114 170.085 136.838 169.688 136.172C169.027 135.07 167.726 135.583 167.259 135.826C166.791 136.069 165.515 137.36 165.515 137.36Z" fill="white"/>
<path d="M163.951 147.925C163.951 147.925 160.406 151.652 160.008 153.79C159.597 155.931 159.789 156.479 160.336 157.868C160.883 159.257 162.072 160.446 163.007 160.812C163.761 161.11 166.345 160.802 166.345 160.802C166.345 160.802 168.507 160.026 168.885 159.02C169.263 158.014 168.939 157.001 168.137 155.821C166.963 154.092 167.5 152.995 168.156 151.212C168.896 149.189 171.076 147.089 170.787 145.931C170.499 144.773 169.053 145.126 168.415 145.284C166.532 145.777 163.951 147.925 163.951 147.925Z" fill="white"/>
<path d="M49.0613 94.8251C49.0613 116.109 41.6113 116.109 41.6113 137.406C41.6113 158.703 49.0613 158.703 49.0613 179.986C49.0613 201.27 41.6113 201.283 41.6113 222.567" stroke="#FF7B72" stroke-width="3" stroke-miterlimit="10"/>
<path d="M78.8044 59.1423C80.6224 32.0753 65.1922 8.99934 44.34 7.60071C23.4878 6.20208 5.10993 27.0104 3.29188 54.0774C1.47382 81.1443 16.904 104.22 37.7562 105.619C58.6085 107.018 76.9863 86.2092 78.8044 59.1423Z" fill="#FFF683"/>
<path d="M46.3548 109.636C68.7053 109.636 86.8239 86.5921 86.8239 58.1662C86.8239 29.7403 68.7053 6.69653 46.3548 6.69653C24.0044 6.69653 5.88574 29.7403 5.88574 58.1662C5.88574 86.5921 24.0044 109.636 46.3548 109.636Z" stroke="#FF7B72" stroke-width="3" stroke-miterlimit="10"/>
<path d="M34.3414 36.4001C36.9121 29.9612 35.7395 23.4431 31.7224 21.8416C27.7054 20.2401 22.365 24.1616 19.7943 30.6005C17.2236 37.0394 18.3961 43.5574 22.4132 45.1589C26.4302 46.7605 31.7707 42.839 34.3414 36.4001Z" fill="white"/>
<path d="M321.15 256.323C321.15 277.606 313.7 277.606 313.7 298.903C313.7 320.2 321.15 320.2 321.15 341.484C321.15 362.768 313.7 362.781 313.7 384.065" stroke="#FF7B72" stroke-width="3" stroke-miterlimit="10"/>
<path d="M350.9 220.652C352.718 193.585 337.287 170.509 316.435 169.111C295.583 167.712 277.205 188.52 275.387 215.587C273.569 242.654 288.999 265.73 309.851 267.129C330.704 268.527 349.082 247.719 350.9 220.652Z" fill="#9CE8FF"/>
<path d="M318.443 271.133C340.793 271.133 358.912 248.09 358.912 219.664C358.912 191.238 340.793 168.194 318.443 168.194C296.092 168.194 277.974 191.238 277.974 219.664C277.974 248.09 296.092 271.133 318.443 271.133Z" stroke="#FF7B72" stroke-width="3" stroke-miterlimit="10"/>
<path d="M306.432 197.901C309.003 191.462 307.83 184.944 303.813 183.342C299.796 181.741 294.456 185.662 291.885 192.101C289.314 198.54 290.487 205.058 294.504 206.66C298.521 208.261 303.862 204.34 306.432 197.901Z" fill="white"/>
<path d="M265.359 6.98633L265.287 54.4333L306.429 30.7908L265.359 6.98633Z" fill="#B9FF83"/>
<path d="M267.301 3L267.229 50.4469L308.367 26.8125L267.301 3Z" stroke="#FF7B72" stroke-width="3" stroke-miterlimit="10"/>
<path d="M46.5298 319.401L57.197 352.423L80.4768 326.683L46.5298 319.401Z" fill="#B9FF83"/>
<path d="M46.98 316.189L57.6472 349.211L80.926 323.478L46.98 316.189Z" stroke="#FF7B72" stroke-width="3" stroke-miterlimit="10"/>
</svg>
