<svg width="9" height="13" viewBox="0 0 9 13" fill="none" xmlns="http://www.w3.org/2000/svg">
<path d="M2.49189 0.327327C2.12039 -0.0813304 1.48794 -0.111447 1.07928 0.26006C0.670623 0.631567 0.640506 1.26402 1.01201 1.67267L2.49189 0.327327ZM6.75195 6.5L7.49189 7.17267L8.10341 6.5L7.49189 5.82733L6.75195 6.5ZM1.01201 11.3273C0.640506 11.736 0.670623 12.3684 1.07928 12.7399C1.48794 13.1114 2.12039 13.0813 2.49189 12.6727L1.01201 11.3273ZM1.01201 1.67267L6.01201 7.17267L7.49189 5.82733L2.49189 0.327327L1.01201 1.67267ZM6.01201 5.82733L1.01201 11.3273L2.49189 12.6727L7.49189 7.17267L6.01201 5.82733Z" fill="#FF7B72"/>
</svg>
