<svg width="30" height="25" viewBox="0 0 30 25" fill="none" xmlns="http://www.w3.org/2000/svg">
<path d="M8.65089 11.53V0.838031H7.25889V4.47403H4.70289V5.66203H7.25889V11.53H8.65089ZM5.96289 8.59003L5.75889 7.47403C4.55889 7.76203 3.21489 7.81003 1.69089 7.81003V2.95003H5.09889V1.82203H0.298893V8.95003H1.33089C3.39489 8.95003 4.94289 8.84203 5.96289 8.59003ZM19.8617 10.198V9.08203H15.7097V7.00603H18.7097V1.54603H17.3057V3.22603H12.7577V1.57003H11.3657V7.00603H14.3057V9.08203H10.2017V10.198H19.8617ZM17.3057 5.89003H12.7577V4.30603H17.3057V5.89003ZM29.4285 11.53V0.838031H28.0245V11.53H29.4285ZM26.1405 1.95403H21.1485V3.11803H24.6285C24.4365 5.24203 22.8405 7.47403 20.5005 8.54203L21.3645 9.59803C24.6285 7.82203 26.0565 5.18203 26.1405 1.95403ZM15.0356 24.906L9.4436 20.07H11.4956L15.0356 23.178L18.5756 20.07H20.6276L15.0356 24.906Z" fill="#202020"/>
</svg>
