<svg width="15" height="9" viewBox="0 0 15 9" fill="none" xmlns="http://www.w3.org/2000/svg">
<path d="M13.8408 2.92493C14.3517 2.46054 14.3893 1.66998 13.9249 1.15916C13.4605 0.648337 12.67 0.610691 12.1592 1.07507L13.8408 2.92493ZM7.5 7L6.65916 7.92493L7.5 8.68933L8.34084 7.92493L7.5 7ZM2.84084 1.07507C2.33002 0.610691 1.53946 0.648337 1.07508 1.15916C0.610691 1.66998 0.648337 2.46054 1.15916 2.92492L2.84084 1.07507ZM12.1592 1.07507L6.65916 6.07507L8.34084 7.92493L13.8408 2.92493L12.1592 1.07507ZM8.34084 6.07507L2.84084 1.07507L1.15916 2.92492L6.65916 7.92493L8.34084 6.07507Z" fill="#FF7B72"/>
</svg>
