<svg width="177" height="27" viewBox="0 0 177 27" fill="none" xmlns="http://www.w3.org/2000/svg">
<rect y="7.26923" width="177" height="13.5" fill="#FFEBEA"/>
<path d="M8.42208 5.81H12.3601V5.876C12.3601 8.846 10.4681 11.222 7.63008 12.256L9.14808 14.28C11.0401 13.62 13.1081 11.662 13.7021 9.748C14.5381 11.552 16.4521 13.18 17.9481 13.73L19.3561 11.706C17.1121 10.98 15.0441 8.802 15.0001 5.81H18.7621V3.698H8.42208V5.81ZM23.9541 16.348V2.136H21.3801V7.35H18.4321V9.418H21.3801V16.348H23.9541ZM24.3721 21.21V19.186H13.4381V15.028H10.8421V21.21H24.3721ZM36.4112 15.82C34.2772 14.588 32.9792 12.542 32.8252 9.088H35.9052V7.042H27.0832V9.088H30.2952C30.1412 12.608 28.8432 14.72 26.2912 16.348L27.8532 18.086C29.4592 17.162 31.0872 15.138 31.5492 13.312C32.0552 15.05 33.6832 16.898 34.9592 17.646L36.4112 15.82ZM39.6672 20.836V2.51H37.2472V10.32H34.8272V12.388H37.2472V20.836H39.6672ZM43.4512 21.738V2.136H41.0092V21.738H43.4512ZM34.1452 5.744V3.72H29.0192V5.744H34.1452ZM61.2477 15.358C58.9157 13.972 57.6397 11.178 57.6397 7.35V6.448H60.6977V4.402H51.8537V6.448H55.1537V7.394C55.1537 11.266 53.8997 14.06 51.1057 15.908L52.6677 17.646C54.2517 16.744 55.9237 14.478 56.3857 12.652C56.8697 14.39 58.5197 16.392 59.7957 17.206L61.2477 15.358ZM64.3497 20.836V2.51H61.9517V8.89H59.3997V11.002H61.9517V20.836H64.3497ZM68.2877 21.738V2.136H65.8457V21.738H68.2877ZM85.9588 2.136H83.3628V16.348H85.9588V9.77H88.7308V7.636H85.9588V2.136ZM86.4208 21.166V19.12H75.8168V14.896H73.2428V21.166H86.4208ZM70.9548 8.516C70.9548 11.31 73.0008 13.312 76.1248 13.312C79.2708 13.312 81.2948 11.31 81.2948 8.516C81.2948 5.744 79.2708 3.72 76.1248 3.72C73.0008 3.72 70.9548 5.744 70.9548 8.516ZM73.5728 8.516C73.5728 7.02 74.5628 5.898 76.1248 5.898C77.7088 5.898 78.6988 7.02 78.6988 8.516C78.6988 10.056 77.7088 11.178 76.1248 11.178C74.5628 11.178 73.5728 10.056 73.5728 8.516ZM105.896 21.738V2.136H103.3V8.758H99.758V10.936H103.3V21.738H105.896ZM101.584 15.446C98.636 13.554 96.876 10.518 96.876 6.646V3.786H94.236V6.778C94.236 10.672 92.52 13.774 89.374 15.82L90.914 17.712C92.96 16.612 94.962 14.126 95.6 11.882C96.26 13.928 98.482 16.392 100.11 17.382L101.584 15.446ZM128.114 2.136V21.738H130.666V2.136H128.114ZM126.398 14.566C123.89 15.028 119.996 15.138 118.126 15.138V11.156H124.528V3.808H115.486V5.854H121.932V9.11H115.574V17.25H117.642C120.964 17.25 124.616 17.03 126.684 16.612L126.398 14.566ZM151.22 19.186V17.14H133.51V19.186H151.22ZM150.846 11.156C147.854 10.65 143.718 8.076 143.718 4.622V3.324H141.034V4.622C141.034 8.098 137.14 10.694 133.928 11.156L135.138 13.246C137.844 12.652 141.342 10.562 142.354 7.922C143.476 10.496 146.864 12.542 149.548 13.158L150.846 11.156ZM167.571 9.924V7.9H157.363V5.7H168.033V3.676H154.811V14.082H168.231V12.058H157.363V9.924H167.571ZM170.255 17.25H152.545V19.274H170.255V17.25Z" fill="#202020"/>
</svg>
