<svg width="280" height="31" viewBox="0 0 280 31" fill="none" xmlns="http://www.w3.org/2000/svg">
<path d="M0.601344 2.62H3.20534V2.69C3.20534 4.552 1.88934 6.036 0.139344 6.694L0.979344 7.8C2.23934 7.324 3.56934 6.12 3.93334 4.888C4.47934 6.064 5.66934 7.044 6.71934 7.464L7.50334 6.316C6.06134 5.84 4.67534 4.482 4.67534 2.648V2.62H7.16734V1.43H0.601344V2.62ZM2.00134 8.598V9.732H8.70734V13.12H10.1493V8.598H2.00134ZM11.9693 4.846V3.656H10.1353V0.631999H8.69334V7.94H10.1353V4.846H11.9693ZM22.8366 7.968V0.631999H21.4086V3.264H19.1266V4.44H21.4086V7.968H22.8366ZM22.9486 10.642C22.9486 9.144 21.4086 8.15 18.6926 8.15C16.0046 8.15 14.4646 9.144 14.4646 10.642C14.4646 12.112 16.0046 13.106 18.6926 13.106C21.4086 13.106 22.9486 12.112 22.9486 10.642ZM21.4646 10.642C21.4646 11.454 20.4566 11.958 18.6926 11.958C16.9706 11.958 15.9486 11.454 15.9486 10.642C15.9486 9.816 16.9706 9.312 18.6926 9.312C20.4566 9.312 21.4646 9.816 21.4646 10.642ZM19.9246 6.288C18.5106 5.798 16.9846 4.356 16.9846 2.41V1.22H15.5146V2.466C15.5146 4.398 14.2406 5.896 12.4486 6.61L13.3166 7.716C14.5766 7.226 15.8786 6.036 16.2566 4.748C16.8026 5.952 18.0766 6.974 19.0986 7.408L19.9246 6.288ZM31.7999 3.964V2.83H24.5759V3.964H31.7999ZM31.1419 6.61C31.1419 5.322 29.8819 4.44 28.2159 4.44C26.5219 4.44 25.2619 5.322 25.2619 6.61C25.2619 7.926 26.5359 8.78 28.2159 8.78C29.8819 8.78 31.1419 7.926 31.1419 6.61ZM29.7699 6.61C29.7699 7.282 29.0559 7.674 28.2159 7.674C27.3339 7.674 26.6339 7.282 26.6339 6.61C26.6339 5.952 27.3339 5.532 28.2159 5.532C29.0559 5.532 29.7699 5.952 29.7699 6.61ZM26.3819 2.06H30.0359V0.911999H26.3819V2.06ZM34.3619 0.631999H32.9199V9.858H34.3619V5.728H36.2099V4.538H34.3619V0.631999ZM34.7259 12.77V11.622H27.8239V9.424H26.3819V12.77H34.7259ZM52.0009 6.694V5.504H50.1529V0.631999H48.7109V13.106H50.1529V6.694H52.0009ZM46.8769 1.948H41.1229V3.124H45.3369C45.0989 5.742 43.2649 8.36 40.3949 9.676L41.2909 10.768C44.8889 8.794 46.7789 5.812 46.8769 1.948ZM63.0922 13.106V0.631999H61.7202V13.106H63.0922ZM60.6282 12.518V0.884H59.2842V5.644H57.6182V6.82H59.2842V12.518H60.6282ZM57.8422 2.13H53.0682V3.306H56.4282C56.2742 5.882 54.8322 8.136 52.3542 9.606L53.3062 10.586C56.3022 8.612 57.8142 5.938 57.8422 2.13ZM78.7432 10.656C78.7432 9.158 77.1892 8.178 74.4872 8.178C71.7992 8.178 70.2592 9.158 70.2592 10.656C70.2592 12.126 71.7992 13.106 74.4872 13.106C77.1892 13.106 78.7432 12.126 78.7432 10.656ZM68.8032 2.62H71.3932V2.732C71.3932 4.58 70.0632 6.078 68.3132 6.722L69.1812 7.842C70.4272 7.366 71.7712 6.148 72.1352 4.93C72.6672 6.092 73.8992 7.072 74.9212 7.478L75.7192 6.344C74.2632 5.896 72.8772 4.524 72.8772 2.662V2.62H75.3692V1.43H68.8032V2.62ZM75.1732 4.846H77.2032V8.136H78.6452V0.631999H77.2032V3.656H75.1732V4.846ZM74.4872 9.354C76.2512 9.354 77.2732 9.83 77.2732 10.656C77.2732 11.468 76.2512 11.944 74.4872 11.944C72.7652 11.944 71.7432 11.468 71.7432 10.656C71.7432 9.83 72.7652 9.354 74.4872 9.354ZM90.3385 7.814V1.514H88.9105V3.53H83.3245V1.528H81.8965V7.814H85.3825V10.376H80.4825V11.524H91.7525V10.376H86.8105V7.814H90.3385ZM88.9105 6.666H83.3245V4.664H88.9105V6.666ZM104.132 6.694V5.504H102.284V0.631999H100.842V13.106H102.284V6.694H104.132ZM99.0078 1.948H93.2538V3.124H97.4678C97.2298 5.742 95.3958 8.36 92.5258 9.676L93.4218 10.768C97.0198 8.794 98.9098 5.812 99.0078 1.948ZM119.657 6.372H108.387V7.52H119.657V6.372ZM119.153 4.426C117.389 4.314 114.785 2.984 114.785 1.136V0.771999H113.287V1.136C113.287 2.984 110.949 4.202 108.919 4.412L109.535 5.546C111.383 5.252 113.427 4.188 114.029 2.816C114.645 4.188 116.801 5.294 118.523 5.56L119.153 4.426ZM118.355 10.824C118.355 9.452 116.773 8.542 114.015 8.542C111.271 8.542 109.703 9.452 109.703 10.824C109.703 12.21 111.271 13.106 114.029 13.106C116.773 13.106 118.355 12.21 118.355 10.824ZM116.871 10.824C116.871 11.552 115.779 11.944 114.015 11.944C112.265 11.944 111.173 11.552 111.173 10.824C111.173 10.11 112.265 9.69 114.015 9.69C115.779 9.69 116.871 10.11 116.871 10.824ZM130.762 9.676V0.631999H129.334V9.676H130.762ZM131.056 12.742V11.594H123.944V8.822H122.516V12.742H131.056ZM127.262 4.608C127.262 2.83 125.974 1.556 124.07 1.556C122.152 1.556 120.85 2.844 120.85 4.622C120.85 6.386 122.166 7.66 124.07 7.66C125.974 7.66 127.262 6.386 127.262 4.608ZM125.834 4.608C125.834 5.63 125.162 6.442 124.07 6.442C123.006 6.442 122.292 5.63 122.292 4.608C122.292 3.544 123.006 2.746 124.07 2.746C125.162 2.746 125.834 3.516 125.834 4.608ZM140.873 9.116C139.949 9.256 138.661 9.34 137.387 9.382V7.03H139.893V5.868H135.063V2.942H139.837V1.78H133.621V7.03H135.959V9.438C134.811 9.466 133.663 9.466 132.599 9.466L132.823 10.656C135.651 10.642 138.381 10.558 140.985 10.222L140.873 9.116ZM143.043 0.631999H141.601V13.106H143.043V0.631999ZM144.839 5.938C144.839 8.57 146.001 10.362 148.003 10.362C149.893 10.362 151.027 8.808 151.181 6.47H153.561V13.106H155.003V0.631999H153.561V5.294H151.167C150.985 3.026 149.851 1.5 148.003 1.5C146.001 1.5 144.839 3.32 144.839 5.938ZM149.809 5.952C149.809 7.926 149.067 9.228 148.003 9.228C146.981 9.228 146.239 7.926 146.239 5.952C146.239 3.95 146.981 2.662 148.003 2.662C149.067 2.662 149.809 3.95 149.809 5.952ZM172.054 6.694V5.504H170.206V0.631999H168.764V13.106H170.206V6.694H172.054ZM166.93 1.948H161.176V3.124H165.39C165.152 5.742 163.318 8.36 160.448 9.676L161.344 10.768C164.942 8.794 166.832 5.812 166.93 1.948ZM183.145 13.106V0.631999H181.773V13.106H183.145ZM180.681 12.518V0.884H179.337V5.644H177.671V6.82H179.337V12.518H180.681ZM177.895 2.13H173.121V3.306H176.481C176.327 5.882 174.885 8.136 172.407 9.606L173.359 10.586C176.355 8.612 177.867 5.938 177.895 2.13ZM198.684 9.676V0.631999H197.256V9.676H198.684ZM198.978 12.742V11.594H191.866V8.822H190.438V12.742H198.978ZM195.184 4.608C195.184 2.83 193.896 1.556 191.992 1.556C190.074 1.556 188.772 2.844 188.772 4.622C188.772 6.386 190.088 7.66 191.992 7.66C193.896 7.66 195.184 6.386 195.184 4.608ZM193.756 4.608C193.756 5.63 193.084 6.442 191.992 6.442C190.928 6.442 190.214 5.63 190.214 4.608C190.214 3.544 190.928 2.746 191.992 2.746C193.084 2.746 193.756 3.516 193.756 4.608ZM210.503 10.782C210.503 9.424 208.921 8.5 206.163 8.5C203.419 8.5 201.851 9.424 201.851 10.782C201.851 12.154 203.419 13.064 206.177 13.064C208.921 13.064 210.503 12.154 210.503 10.782ZM211.245 4.65C209.565 4.552 207.479 3.67 207.031 2.284H210.699V1.122H201.669V2.284H205.365C204.959 3.67 203.083 4.552 201.123 4.664L201.753 5.798C203.811 5.574 205.603 4.552 206.177 3.32C206.849 4.51 208.753 5.56 210.615 5.784L211.245 4.65ZM211.805 6.582H200.535V7.73H211.805V6.582ZM209.019 10.782C209.019 11.51 207.927 11.902 206.163 11.902C204.413 11.902 203.321 11.51 203.321 10.782C203.321 10.082 204.413 9.662 206.163 9.662C207.927 9.662 209.019 10.082 209.019 10.782ZM222.911 13.106V0.631999H221.483V13.106H222.911ZM213.013 5.966C213.013 8.598 214.203 10.334 216.205 10.334C218.207 10.334 219.369 8.598 219.369 5.98C219.369 3.334 218.207 1.598 216.205 1.598C214.203 1.598 213.013 3.334 213.013 5.966ZM218.011 5.966C218.011 7.968 217.269 9.172 216.205 9.172C215.155 9.172 214.427 7.968 214.427 5.966C214.427 3.964 215.155 2.774 216.205 2.774C217.269 2.774 218.011 3.964 218.011 5.966ZM236.056 6.974C235.328 7.086 233.942 7.198 232.78 7.254V6.12C234.194 5.882 235.146 4.93 235.146 3.698C235.146 2.242 233.858 1.164 232.08 1.164C230.274 1.164 228.986 2.242 228.986 3.684C228.986 4.93 229.924 5.882 231.352 6.12V7.296C230.246 7.324 229.028 7.324 228.118 7.324L228.328 8.528C231.016 8.5 233.816 8.36 236.182 8.052L236.056 6.974ZM238.226 0.631999H236.798V9.956H238.226V5.952H240.018V4.762H238.226V0.631999ZM238.534 12.896V11.748H231.478V9.396H230.05V12.896H238.534ZM233.746 3.684C233.746 4.37 233.13 5.07 232.08 5.07C231.016 5.07 230.4 4.398 230.4 3.684C230.4 2.984 231.016 2.27 232.08 2.27C233.13 2.27 233.746 2.97 233.746 3.684ZM250.731 8.262V7.1H243.437V5.392H250.367V1.5H241.967V2.648H248.939V4.23H241.995V8.262H243.479V10.376H240.553V11.524H251.823V10.376H248.869V8.262H250.731ZM244.893 8.262H247.455V10.376H244.893V8.262ZM260.926 9.116C260.002 9.256 258.714 9.34 257.44 9.382V7.03H259.946V5.868H255.116V2.942H259.89V1.78H253.674V7.03H256.012V9.438C254.864 9.466 253.716 9.466 252.652 9.466L252.876 10.656C255.704 10.642 258.434 10.558 261.038 10.222L260.926 9.116ZM263.096 0.631999H261.654V13.106H263.096V0.631999ZM271.667 3.782H273.613V5.364H271.667V6.54H273.613V9.676H275.041V0.631999H273.613V2.62H271.667V3.782ZM275.307 12.742V11.594H268.349V8.892H266.907V12.742H275.307ZM271.023 7.478V1.71H265.325V7.478H271.023ZM269.581 6.372H266.753V2.83H269.581V6.372ZM277.313 13.204H278.475L279.091 10.082H277.523L277.313 13.204ZM26.5622 30.106V17.632H25.1342V21.93H22.6982V23.134H25.1342V30.106H26.5622ZM23.8742 26.2C22.0402 25.052 20.7942 23.064 20.7942 20.67V18.696H19.3242V20.754C19.3242 23.134 18.1062 25.192 16.1742 26.452L17.0702 27.488C18.4142 26.676 19.6602 25.108 20.0942 23.624C20.5422 24.996 21.9422 26.592 23.0062 27.264L23.8742 26.2ZM38.6615 30.106V17.632H37.2335V30.106H38.6615ZM34.8955 26.9V18.64H33.4395V21.692H30.4575V18.654H29.0155V26.9H34.8955ZM33.4395 25.738H30.4575V22.826H33.4395V25.738ZM51.7828 28.454V27.306H40.5128V28.454H51.7828ZM51.4888 23.442C49.6128 23.106 46.9108 21.356 46.9108 19.214V18.388H45.4128V19.214C45.4128 21.37 42.8648 23.064 40.8348 23.386L41.5348 24.562C43.4248 24.1 45.5668 22.686 46.1408 21.146C46.7848 22.658 48.8988 24.072 50.7328 24.562L51.4888 23.442ZM63.8961 24.436V23.358H52.6261V24.436H63.8961ZM62.7901 30.008V28.986H55.4961V28.132H62.4541V25.248H54.0261V26.284H61.0261V27.124H54.0681V30.008H62.7901ZM62.6501 22.602V21.552H55.5521V20.768H62.3841V17.954H54.0821V19.004H60.9421V19.802H54.1101V22.602H62.6501ZM78.6791 30.106V17.632H77.2511V30.106H78.6791ZM68.7811 22.966C68.7811 25.598 69.9711 27.334 71.9731 27.334C73.9751 27.334 75.1371 25.598 75.1371 22.98C75.1371 20.334 73.9751 18.598 71.9731 18.598C69.9711 18.598 68.7811 20.334 68.7811 22.966ZM73.7791 22.966C73.7791 24.968 73.0371 26.172 71.9731 26.172C70.9231 26.172 70.1951 24.968 70.1951 22.966C70.1951 20.964 70.9231 19.774 71.9731 19.774C73.0371 19.774 73.7791 20.964 73.7791 22.966ZM90.4984 20.152C90.4984 18.766 88.9304 17.8 86.1584 17.8C83.4144 17.8 81.8464 18.766 81.8464 20.152C81.8464 20.95 82.3364 21.594 83.2604 22.014V23.652H80.5304V24.8H91.8004V23.652H89.0284V22.042C89.9804 21.622 90.4984 20.964 90.4984 20.152ZM90.4984 27.81C90.4984 26.396 88.9024 25.542 86.1584 25.542C83.4424 25.542 81.8464 26.396 81.8464 27.81C81.8464 29.252 83.4424 30.092 86.1724 30.092C88.9024 30.092 90.4984 29.252 90.4984 27.81ZM89.0144 20.152C89.0144 20.936 87.9084 21.412 86.1584 21.412C84.3804 21.412 83.3164 20.936 83.3164 20.152C83.3164 19.382 84.3804 18.892 86.1584 18.892C87.9504 18.892 89.0144 19.382 89.0144 20.152ZM89.0144 27.824C89.0144 28.566 87.9084 28.944 86.1584 28.944C84.4224 28.944 83.3164 28.566 83.3164 27.824C83.3164 27.096 84.4224 26.676 86.1584 26.676C87.8944 26.676 89.0144 27.096 89.0144 27.824ZM86.1724 22.518C86.6904 22.518 87.1664 22.504 87.6004 22.434V23.652H84.6884V22.42C85.1364 22.504 85.6404 22.518 86.1724 22.518ZM99.7836 20.474V19.368H92.5456V20.474H99.7836ZM99.0976 22.784C99.0976 21.622 97.8376 20.894 96.1716 20.894C94.4916 20.894 93.2456 21.622 93.2456 22.784C93.2456 24.002 94.5196 24.702 96.1716 24.702C97.8516 24.702 99.0976 24.002 99.0976 22.784ZM97.7116 22.784C97.7116 23.372 96.9836 23.666 96.1716 23.666C95.3736 23.666 94.6176 23.372 94.6176 22.784C94.6176 22.252 95.3596 21.93 96.1716 21.93C96.9836 21.93 97.7116 22.252 97.7116 22.784ZM94.3516 18.724H98.0056V17.618H94.3516V18.724ZM104.166 21.748V20.544H102.332V17.632H100.89V24.674H102.332V21.748H104.166ZM102.752 30.064V28.972H95.7376V28.216H102.332V25.318H94.2536V26.424H100.89V27.194H94.3096V30.064H102.752ZM114.763 30.12V25.584H119.705V24.45H108.435V25.584H113.335V30.12H114.763ZM119.229 22.056C117.213 21.86 114.847 20.334 114.847 18.542V17.912H113.335V18.542C113.335 20.334 111.193 21.804 108.981 22.056L109.611 23.232C111.501 22.896 113.531 21.692 114.077 20.306C114.707 21.692 116.723 22.91 118.571 23.218L119.229 22.056ZM133.046 17.632V24.604H134.488V17.632H133.046ZM130.946 21.286C130.946 19.536 129.504 18.318 127.74 18.318C125.962 18.318 124.534 19.564 124.534 21.286C124.534 23.05 125.976 24.156 127.74 24.156C129.518 24.156 130.946 23.05 130.946 21.286ZM129.546 21.272C129.546 22.294 128.818 23.064 127.74 23.064C126.676 23.064 125.934 22.308 125.934 21.272C125.934 20.306 126.662 19.494 127.74 19.494C128.86 19.494 129.546 20.292 129.546 21.272ZM135.692 29.028C134.306 28.538 133.34 27.334 133.34 25.766V25.206H131.954V25.78C131.954 27.376 130.988 28.65 129.546 29.308L130.358 30.274C131.324 29.798 132.416 28.748 132.668 27.81C132.99 28.734 134.082 29.7 134.908 30.064L135.692 29.028ZM129.406 29.042L130.33 28.034C129.616 27.81 128.734 27.054 128.734 25.794V25.276H127.334V25.864C127.334 27.446 126.2 28.664 124.884 29.224L125.668 30.19C126.802 29.7 127.782 28.748 128.09 27.754C128.342 28.3 128.958 28.804 129.406 29.042ZM147.609 24.352V23.19H136.339V24.352H147.609ZM146.139 29.952V25.164H144.711V26.466H139.237V25.192H137.795V29.952H146.139ZM144.711 28.804H139.237V27.586H144.711V28.804ZM147.105 21.3C145.341 21.188 142.737 19.9 142.737 18.066V17.688H141.239V18.066C141.239 19.9 138.901 21.076 136.871 21.286L137.487 22.42C139.335 22.112 141.379 21.118 141.981 19.718C142.597 21.118 144.753 22.154 146.475 22.434L147.105 21.3ZM158.672 30.106V17.632H157.244V30.106H158.672ZM156.096 25.318C154.724 25.626 152.26 25.906 150.594 25.85V18.92H149.18V27.11H150.482C152.05 27.096 154.738 26.872 156.264 26.494L156.096 25.318ZM172.116 23.61V22.406H170.24V17.632H168.812V30.106H170.24V23.61H172.116ZM167.65 25.458C166.054 25.794 164.024 25.878 162.484 25.85V19.97H166.74V18.794H161.07V27.054H162.386C164.472 27.054 166.474 26.914 167.832 26.634L167.65 25.458ZM173.239 28.566H174.779V27.054H173.239V28.566ZM182.713 29.868H183.931C182.643 28.44 181.593 26.242 181.593 24.058V23.68C181.593 21.44 182.643 19.41 183.931 17.996H182.713C181.369 19.298 180.179 21.272 180.179 23.806V24.044C180.179 26.578 181.369 28.58 182.713 29.868ZM185.191 21.356H187.893C187.683 22.602 186.381 23.666 184.827 24.03L185.583 25.178C186.955 24.8 188.243 23.736 188.649 22.672C189.195 23.61 190.483 24.506 191.603 24.772L192.303 23.624C191.015 23.442 189.601 22.504 189.377 21.356H191.953V20.208H185.191V21.356ZM194.921 17.632H193.479V30.106H194.921V17.632ZM192.779 26.312C191.855 26.438 190.595 26.522 189.349 26.578V24.436H187.907V26.634C186.745 26.676 185.555 26.662 184.477 26.662L184.701 27.852C187.529 27.824 190.287 27.754 192.891 27.418L192.779 26.312ZM186.843 19.424H190.343V18.276H186.843V19.424ZM207.119 30.106V17.632H205.733V22.588H204.473V17.884H203.115V29.504H204.473V23.792H205.733V30.106H207.119ZM202.247 25.556C201.309 25.766 200.021 25.864 198.467 25.864V20.292C199.531 20.292 200.637 20.306 201.715 20.306V19.144H197.011V27.054H198.271C199.783 27.054 201.393 26.942 202.429 26.704L202.247 25.556ZM215.294 28.552C217.422 28.552 218.752 27.432 218.752 25.724C218.752 24.282 217.87 23.61 216.666 23.372C217.73 23.008 218.416 22.294 218.416 21.146C218.416 19.634 217.268 18.78 215.532 18.78C214.636 18.78 213.558 19.074 212.97 19.438L213.152 20.544C213.726 20.264 214.44 19.97 215.168 19.97C216.26 19.97 216.932 20.348 216.932 21.398C216.932 22.35 216.19 22.91 215.028 22.924L214.202 22.938V24.044L215.126 24.058C216.428 24.072 217.24 24.562 217.24 25.668C217.24 26.774 216.47 27.376 215.056 27.376C214.342 27.376 213.404 27.124 212.9 26.802L212.634 27.88C213.166 28.244 214.16 28.552 215.294 28.552ZM226.607 20.936C226.607 19.242 225.249 18.08 223.429 18.08C221.609 18.08 220.251 19.27 220.251 20.936C220.251 22.63 221.665 23.68 223.429 23.68C225.249 23.68 226.607 22.588 226.607 20.936ZM225.193 20.922C225.193 21.776 224.493 22.49 223.429 22.49C222.421 22.49 221.665 21.832 221.665 20.922C221.665 19.998 222.463 19.27 223.429 19.27C224.521 19.27 225.193 19.984 225.193 20.922ZM230.583 30.008V28.874H223.499V27.81H230.177V24.562H222.001V25.724H228.749V26.746H222.057V30.008H230.583ZM230.163 23.918V17.632H228.735V23.918H230.163ZM246.598 23.288C244.722 22.938 242.09 21.202 242.09 19.088V18.346H240.592V19.088C240.592 21.23 238.128 22.91 236.084 23.232L236.784 24.394C238.674 23.946 240.746 22.518 241.32 20.964C241.964 22.504 243.994 23.918 245.856 24.394L246.598 23.288ZM246.962 28.538V27.376H242.02V24.31H240.592V27.376H235.692V28.538H246.962ZM257.97 21.678C257.97 19.802 256.178 18.472 253.434 18.472C250.732 18.472 248.926 19.802 248.926 21.678C248.926 23.568 250.732 24.884 253.434 24.884C256.178 24.884 257.97 23.568 257.97 21.678ZM256.5 21.678C256.5 22.882 255.282 23.694 253.434 23.694C251.6 23.694 250.382 22.882 250.382 21.678C250.382 20.474 251.6 19.662 253.434 19.662C255.296 19.662 256.5 20.474 256.5 21.678ZM259.076 28.524V27.376H256.416V25.206L254.974 25.192V27.376H251.866V25.192L250.41 25.206V27.376H247.806V28.524H259.076ZM259.639 29.868H260.857C262.215 28.58 263.391 26.592 263.391 24.044V23.806C263.391 21.286 262.215 19.298 260.857 17.996H259.639C260.927 19.424 261.977 21.622 261.977 23.792V24.17C261.977 26.41 260.927 28.454 259.639 29.868Z" fill="#202020"/>
</svg>
