<svg width="420" height="416" viewBox="0 0 420 416" fill="none" xmlns="http://www.w3.org/2000/svg">
<path d="M111.66 113.615L132.758 127.456L108.188 127.165L119.143 151.299L98.589 136.494L95.9173 163.26L85.9002 138.64L70.4486 159.545L74.1595 132.928L50.8306 141.325L67.0767 121.157L43.292 114.39L66.9163 107.079L50.2151 87.2918L73.7293 95.1575L69.4129 68.6321L85.3368 89.1806L94.7905 64.3404L98.0712 91.0382L118.282 75.772L107.88 100.148L132.438 99.2997L111.66 113.615Z" fill="#FFF683"/>
<path d="M97.0004 60.5523L100.281 87.2501L120.492 71.9839L110.101 96.3598L134.647 95.5116L113.87 109.827L134.968 123.668L110.408 123.376L121.353 147.51L100.799 132.706L98.1273 159.472L88.1206 134.852L72.6586 155.756L76.3695 129.14L53.0405 137.537L69.2972 117.376L45.502 110.602L69.1368 103.298L52.425 83.5037L75.9392 91.3694L71.6229 64.844L87.5572 85.3924L97.0004 60.5523Z" stroke="#FF7B72" stroke-width="3" stroke-miterlimit="10"/>
<path d="M191.394 88.8258L246.854 190.477L135.542 157.683C117.377 218.968 152.486 283.34 213.973 301.449C275.446 319.557 340.016 284.556 358.18 223.257C376.344 161.973 341.235 97.6007 279.748 79.4921C249.012 70.4378 217.505 74.6575 191.408 88.8119L191.394 88.8258Z" fill="#F9F1E4"/>
<path d="M213.524 108.324L255.477 185.286L171.272 160.458C157.533 206.857 184.094 255.596 230.612 269.303C277.12 283.01 325.975 256.512 339.714 210.103C353.453 163.704 326.892 114.965 280.374 101.258C257.109 94.4047 233.268 97.6079 213.524 108.324Z" stroke="#FFAD9B" stroke-width="9" stroke-miterlimit="10"/>
<path d="M200.363 82.049L255.486 183.1L144.833 150.501C126.781 211.422 161.679 275.417 222.802 293.414C283.91 311.411 348.101 276.619 366.154 215.684C384.206 154.763 349.307 90.768 288.185 72.7711C257.63 63.7727 226.306 67.9645 200.363 82.035V82.049Z" stroke="#FF7B72" stroke-width="3" stroke-miterlimit="10"/>
<path d="M196.235 220.97C200.308 228.337 197.621 237.61 190.225 241.68C182.829 245.75 173.533 243.069 169.461 235.702C165.388 228.335 168.075 219.062 175.471 214.993C182.867 210.923 192.163 213.603 196.235 220.97Z" fill="#FFAD9B" stroke="#FF7B72" stroke-width="3"/>
<path d="M265.077 260.757C269.15 268.124 266.463 277.398 259.067 281.467C251.671 285.537 242.375 282.857 238.302 275.49C234.23 268.122 236.917 258.849 244.313 254.78C251.709 250.71 261.004 253.39 265.077 260.757Z" fill="#FFAD9B" stroke="#FF7B72" stroke-width="3"/>
<path d="M333.92 230.962C337.993 238.329 335.305 247.602 327.909 251.672C320.513 255.741 311.218 253.061 307.145 245.694C303.072 238.327 305.76 229.054 313.156 224.984C320.552 220.915 329.847 223.595 333.92 230.962Z" fill="#FFAD9B" stroke="#FF7B72" stroke-width="3"/>
<path d="M344.562 141.124C348.635 148.492 345.948 157.765 338.552 161.834C331.156 165.904 321.861 163.224 317.788 155.857C313.715 148.49 316.402 139.216 323.798 135.147C331.194 131.077 340.49 133.757 344.562 141.124Z" fill="#FFAD9B" stroke="#FF7B72" stroke-width="3"/>
<path d="M286.741 93.3281C290.814 100.695 288.127 109.968 280.731 114.038C273.335 118.107 264.039 115.427 259.967 108.06C255.894 100.693 258.581 91.42 265.977 87.3505C273.373 83.281 282.668 85.961 286.741 93.3281Z" fill="#FFAD9B" stroke="#FF7B72" stroke-width="3"/>
<path d="M174.173 224.597C175.237 225.519 177.315 224.87 178.813 223.147C180.312 221.425 180.664 219.282 179.6 218.36C178.536 217.439 176.459 218.088 174.96 219.81C173.462 221.533 173.109 223.676 174.173 224.597Z" fill="white"/>
<path d="M242.07 266.245C243.134 267.167 245.211 266.517 246.71 264.795C248.208 263.073 248.561 260.93 247.497 260.008C246.433 259.087 244.355 259.736 242.857 261.458C241.358 263.181 241.006 265.324 242.07 266.245Z" fill="white"/>
<path d="M313.177 236.241C314.241 237.163 316.318 236.514 317.817 234.791C319.316 233.069 319.668 230.926 318.604 230.004C317.54 229.083 315.463 229.732 313.964 231.454C312.466 233.177 312.113 235.32 313.177 236.241Z" fill="white"/>
<path d="M321.602 146.821C322.666 147.743 324.743 147.094 326.242 145.371C327.741 143.649 328.093 141.506 327.029 140.584C325.965 139.663 323.888 140.312 322.389 142.034C320.89 143.757 320.538 145.9 321.602 146.821Z" fill="white"/>
<path d="M266 98.4796C267.064 99.401 269.142 98.7518 270.64 97.0296C272.139 95.3073 272.491 93.1641 271.427 92.2427C270.363 91.3212 268.286 91.9704 266.787 93.6927C265.289 95.415 264.936 97.5581 266 98.4796Z" fill="white"/>
<path d="M145.199 36.7191C114.958 53.0757 90.9749 80.9384 80.4235 116.452L209.288 154.697L145.205 36.7307L145.199 36.7191Z" fill="#F9F1E4"/>
<path d="M154.604 31.6204C124.363 47.9771 100.38 75.8398 89.8288 111.353L218.694 149.598L154.61 31.6321L154.604 31.6204Z" stroke="#FF7B72" stroke-width="3" stroke-miterlimit="10"/>
<path d="M156.449 104.641C149.436 108.223 140.839 105.449 137.248 98.449C133.657 91.4489 136.429 82.8701 143.443 79.2887C150.456 75.7074 159.053 78.4811 162.644 85.4812C166.235 92.4813 163.463 101.06 156.449 104.641Z" fill="#FFAD9B" stroke="#FF7B72" stroke-width="3"/>
<path d="M151.336 88.8528C154.046 89.7172 156.708 88.9671 157.282 87.1775C157.855 85.3879 156.123 83.2365 153.413 82.3722C150.703 81.5078 148.041 82.2579 147.468 84.0475C146.894 85.837 148.626 87.9885 151.336 88.8528Z" fill="white"/>
<path d="M121.421 309.929L118.951 314.119L225.276 376.492L227.746 372.302L121.421 309.929Z" fill="#F9F1E4"/>
<path d="M86.8934 292.495C85.1016 291.683 79.5633 289.612 83.0458 283.703C86.5283 277.795 93.2675 281.68 93.2675 281.68C99.2588 285.195 101.26 292.886 97.7405 298.858C94.2206 304.83 86.5891 306.685 80.5193 303.309C73.5515 299.435 62.6373 289.936 72.0186 275.908C82.5323 260.185 99.6415 270.866 99.6415 270.866C111.623 277.894 115.628 293.276 108.588 305.221C105.01 311.29 92.1505 324.258 72.3576 313.51C52.8785 302.929 51.6377 283.766 61.2301 268.204C70.9189 252.487 90.084 246.359 108.007 256.669C127.672 267.98 134.486 293.788 122.825 313.573C111.163 333.358 85.6238 339.959 65.7792 328.318C45.9346 316.676 39.2996 291.201 50.9609 271.416C50.9609 271.416 53.526 267.313 57.2066 269.402C58.9303 270.38 59.1584 271.463 59.1584 271.463" fill="#9CE8FF"/>
<path d="M120.721 321.109L224.465 381.968L226.935 377.778L123.19 316.919" stroke="#FF7B72" stroke-width="3" stroke-miterlimit="10"/>
<path d="M86.0813 297.969C84.2895 297.157 78.7513 295.086 82.2337 289.177C85.7162 283.269 92.4554 287.154 92.4554 287.154C98.4468 290.669 100.448 298.36 96.9285 304.332C93.4085 310.304 85.777 312.159 79.7072 308.783C72.7394 304.909 61.8252 295.41 71.2066 281.382C81.7202 265.659 98.8295 276.34 98.8295 276.34C110.811 283.368 114.816 298.75 107.776 310.695C104.198 316.764 91.3384 329.732 71.5455 318.984C52.0657 308.404 50.8262 289.242 60.4186 273.68C70.1074 257.963 89.2725 251.836 107.196 262.145C126.86 273.456 133.674 299.264 122.013 319.049C110.352 338.834 84.8123 345.435 64.9664 333.793C45.1205 322.151 38.4889 296.675 50.1501 276.89C50.1501 276.89 52.7153 272.788 56.3958 274.877C58.1196 275.855 58.3476 276.938 58.3476 276.938" stroke="#FF7B72" stroke-width="3" stroke-miterlimit="10"/>
<path d="M349.891 32.6763L385.727 63.869L394.911 17.3107L349.891 32.6763Z" fill="#B9FF83"/>
<path d="M344.397 30.3975L380.234 61.5902L389.422 15.0403L344.397 30.3975Z" stroke="#FF7B72" stroke-width="3" stroke-miterlimit="10"/>
<path d="M314.661 354.872L332.904 337.54L308.739 330.431L314.661 354.872Z" fill="#B9FF83"/>
<path d="M321.83 353.903L340.073 336.572L315.912 329.462L321.83 353.903Z" stroke="#FF7B72" stroke-width="3" stroke-miterlimit="10"/>
</svg>
