<svg width="9" height="15" viewBox="0 0 9 15" fill="none" xmlns="http://www.w3.org/2000/svg">
<path d="M2.92493 1.15916C2.46054 0.648337 1.66998 0.610691 1.15916 1.07507C0.648337 1.53946 0.610691 2.33002 1.07507 2.84084L2.92493 1.15916ZM7 7.5L7.92493 8.34084L8.68933 7.5L7.92493 6.65916L7 7.5ZM1.07507 12.1592C0.610691 12.67 0.648337 13.4605 1.15916 13.9249C1.66998 14.3893 2.46054 14.3517 2.92493 13.8408L1.07507 12.1592ZM1.07507 2.84084L6.07507 8.34084L7.92493 6.65916L2.92493 1.15916L1.07507 2.84084ZM6.07507 6.65916L1.07507 12.1592L2.92493 13.8408L7.92493 8.34084L6.07507 6.65916Z" fill="#FF7B72"/>
</svg>
