<svg width="132" height="34" viewBox="0 0 132 34" fill="none" xmlns="http://www.w3.org/2000/svg">
<path d="M27.333 23.3943C25.7975 28.8845 20.8188 33.0248 14.4903 33.0248C6.20768 33.025 0.949707 26.6516 0.949707 19.6264C0.949707 12.1361 6.67314 6.22803 14.2577 6.22803C20.3069 6.22803 25.7513 9.94969 27.333 16.0441H22.3541C21.0514 12.6482 17.8872 10.741 14.4441 10.741C11.8846 10.6943 10.0233 11.5314 8.25516 13.2065C6.76608 14.6953 5.78894 17.0678 5.78894 19.6267C5.78894 24.8371 9.60457 28.5123 14.4441 28.5123C18.6784 28.4656 21.3305 25.9074 22.3541 23.3945H27.333V23.3943Z" fill="#FFFBEF"/>
<path d="M57.8229 32.186H53.1763V27.9419C51.4786 31.2032 47.9939 32.9006 44.1515 32.9006C36.3326 32.9006 31.686 26.8253 31.686 20.0357C31.686 12.6207 37.092 7.1709 44.1515 7.1709C48.9766 7.1709 52.0595 9.85148 53.1763 12.1738V7.88574H57.8229V32.186ZM36.3326 20.1256C36.377 23.7435 38.9241 28.5676 44.8215 28.5676C48.5298 28.5676 51.1657 26.5125 52.3722 23.7435C52.9084 22.6269 53.1766 21.3758 53.2213 20.1256C53.2657 18.8745 53.0425 17.6238 52.5063 16.5065C51.3445 13.6926 48.6192 11.5041 44.7318 11.5041C39.6388 11.5041 36.3323 15.5245 36.3323 20.0807V20.1256H36.3326Z" fill="#FFFBEF"/>
<path d="M64.0386 0.0249023H68.749V17.9656L78.0486 8.5805H83.5498L72.9839 19.013L83.8554 32.3268H78.5724L68.749 20.104V32.3265H64.0386V0.0249023Z" fill="#FFFBEF"/>
<path d="M119.726 8.58234H124.005V12.0745C125.358 9.28077 127.847 7.42284 131.077 7.37891V11.9189H130.772C126.619 12.1593 124.267 14.7803 124.267 19.4951V32.3283H119.726V8.58234H119.726Z" fill="#FFFBEF"/>
<path d="M113.16 16.697H88.7815V12.6405L95.7015 10.5288L113.16 12.6405V16.697Z" fill="#FFFBEF"/>
<path d="M113.16 20.2012H88.7815V24.1907H113.16V20.2012Z" fill="#FFFBEF"/>
<path d="M113.16 27.6953H88.7815V31.6849H113.16V27.6953Z" fill="#FFFBEF"/>
<path d="M101.012 8.38657C102.461 8.38657 103.635 7.21277 103.635 5.76482C103.635 4.31686 102.461 3.14307 101.012 3.14307C99.5642 3.14307 98.3901 4.31686 98.3901 5.76482C98.3901 7.21277 99.5642 8.38657 101.012 8.38657Z" fill="#FFFBEF"/>
</svg>
