<svg width="24" height="21" viewBox="0 0 24 21" fill="none" xmlns="http://www.w3.org/2000/svg">
<path d="M2 0.383057C1.17157 0.383057 0.5 1.05463 0.5 1.88306C0.5 2.71148 1.17157 3.38306 2 3.38306V0.383057ZM22 3.38306C22.8284 3.38306 23.5 2.71148 23.5 1.88306C23.5 1.05463 22.8284 0.383057 22 0.383057V3.38306ZM2 3.38306H22V0.383057H2V3.38306Z" fill="#FFFBEF"/>
<path d="M2 8.90771C1.17157 8.90771 0.5 9.57929 0.5 10.4077C0.5 11.2361 1.17157 11.9077 2 11.9077V8.90771ZM22 11.9077C22.8284 11.9077 23.5 11.2361 23.5 10.4077C23.5 9.57929 22.8284 8.90771 22 8.90771V11.9077ZM2 11.9077H22V8.90771H2V11.9077Z" fill="#FFFBEF"/>
<path d="M2 17.4312C1.17157 17.4312 0.5 18.1027 0.5 18.9312C0.5 19.7596 1.17157 20.4312 2 20.4312V17.4312ZM22 20.4312C22.8284 20.4312 23.5 19.7596 23.5 18.9312C23.5 18.1027 22.8284 17.4312 22 17.4312V20.4312ZM2 20.4312H22V17.4312H2V20.4312Z" fill="#FFFBEF"/>
</svg>
