<svg width="21" height="20" viewBox="0 0 21 20" fill="none" xmlns="http://www.w3.org/2000/svg">
<path d="M12.0985 1.70972C12.0985 1.29746 11.9321 0.902076 11.636 0.61056C11.3399 0.319045 10.9383 0.155273 10.5195 0.155273C10.1008 0.155273 9.69916 0.319045 9.40305 0.61056C9.10694 0.902076 8.94058 1.29746 8.94058 1.70972V8.44565H2.09848C1.67972 8.44565 1.2781 8.60943 0.981994 8.90094C0.685884 9.19246 0.519531 9.58784 0.519531 10.0001C0.519531 10.4124 0.685884 10.8077 0.981994 11.0993C1.2781 11.3908 1.67972 11.5545 2.09848 11.5545H8.94058V18.2905C8.94058 18.7027 9.10694 19.0981 9.40305 19.3896C9.69916 19.6812 10.1008 19.8449 10.5195 19.8449C10.9383 19.8449 11.3399 19.6812 11.636 19.3896C11.9321 19.0981 12.0985 18.7027 12.0985 18.2905V11.5545H18.9406C19.3593 11.5545 19.761 11.3908 20.0571 11.0993C20.3532 10.8077 20.5195 10.4124 20.5195 10.0001C20.5195 9.58784 20.3532 9.19246 20.0571 8.90094C19.761 8.60943 19.3593 8.44565 18.9406 8.44565H12.0985V1.70972Z" fill="#949494"/>
</svg>
