<svg width="263" height="32" viewBox="0 0 263 32" fill="none" xmlns="http://www.w3.org/2000/svg">
<path d="M8.35688 31H12.8369L18.5569 8.56L24.2769 31H28.6369L36.7969 1.4H31.9969L26.2369 24.6L20.3569 1.4H16.7969L10.9969 24.56L5.15688 1.4H0.356875L8.35688 31ZM58.8359 21.44C59.1959 17.8 58.1159 14.4 55.5559 11.8C53.4759 9.76 50.6359 8.6 47.5159 8.6C40.9159 8.6 36.0359 13.92 36.0359 20.16C36.0359 25.92 40.4359 31.64 47.5559 31.64C49.7559 31.64 51.9159 31.04 53.7559 29.8C55.5959 28.6 57.1159 26.8 58.1559 24.4H53.8359C52.6359 26.68 50.4759 28.08 47.5559 28.08C44.2759 28.08 40.4359 25.84 40.2359 21.44H58.8359ZM40.3159 18.2C40.5159 15.24 43.2759 12.16 47.5159 12.16C51.6359 12.08 54.5159 15.32 54.7159 18.2H40.3159ZM61.8275 9.68H65.0675L68.5875 1.4H64.8275L61.8275 9.68ZM70.2122 31H74.3722V19.24C74.3722 14.92 76.4122 12.76 80.3322 12.76H80.6122V8.6C77.6522 8.64 75.3722 9.88 74.1322 12.44V9.24H70.2122V31ZM103.68 21.44C104.04 17.8 102.96 14.4 100.4 11.8C98.3197 9.76 95.4797 8.6 92.3597 8.6C85.7597 8.6 80.8797 13.92 80.8797 20.16C80.8797 25.92 85.2797 31.64 92.3997 31.64C94.5997 31.64 96.7597 31.04 98.5997 29.8C100.44 28.6 101.96 26.8 103 24.4H98.6797C97.4797 26.68 95.3197 28.08 92.3997 28.08C89.1197 28.08 85.2797 25.84 85.0797 21.44H103.68ZM85.1597 18.2C85.3597 15.24 88.1197 12.16 92.3597 12.16C96.4797 12.08 99.3597 15.32 99.5597 18.2H85.1597ZM252.018 14.92C251.698 10.08 247.778 8.6 244.778 8.6C240.818 8.6 237.458 11.08 237.458 15.2C237.498 18.48 239.898 19.92 242.938 20.84C246.818 22.12 248.458 22.84 248.498 25C248.498 26.84 246.938 28.24 244.938 28.24C243.378 28.24 241.258 27.36 241.098 24.72H236.978C237.178 29.68 241.458 31.64 244.898 31.64C249.218 31.64 252.738 28.76 252.658 24.52C252.538 19.84 248.898 18.88 245.578 17.96C243.258 17.32 241.698 16.52 241.618 14.8C241.578 13.36 242.698 12 244.738 12C246.858 11.96 247.898 13.24 247.898 14.92H252.018ZM262.371 1.4H258.051V22.64H262.371V1.4ZM262.371 25.8H258.051V31H262.371V25.8Z" fill="#111111"/>
<path d="M142.948 22C142.308 23.08 139.548 27.4 133.828 27.4C127.588 27.4 123.108 22.32 123.108 16.16C123.108 10.16 127.508 5 133.788 5C138.988 5.04 141.988 8.64 142.948 10.56H147.948C146.508 6.48 141.788 0.879999 133.828 0.84C124.668 0.84 118.388 8.04 118.388 16.16C118.388 24.56 124.948 31.56 133.868 31.56C140.588 31.56 146.068 27.4 147.908 22H142.948ZM174.13 9.24H169.97V13.08C168.97 11 166.21 8.6 161.89 8.6C155.57 8.6 150.73 13.48 150.73 20.12C150.73 26.2 154.89 31.64 161.89 31.64C165.33 31.64 168.45 30.12 169.97 27.2V31H174.13V9.24ZM154.89 20.16C154.89 16.08 157.85 12.48 162.41 12.48C165.89 12.48 168.33 14.44 169.37 16.96C169.85 17.96 170.05 19.08 170.01 20.2C169.97 21.32 169.73 22.44 169.25 23.44C168.17 25.92 165.81 27.76 162.49 27.76C157.21 27.76 154.93 23.44 154.89 20.2V20.16ZM179.746 31H183.946V19.8L192.946 31H197.786L187.826 18.8L197.506 9.24H192.466L183.946 17.84V1.4H179.746V31ZM220.789 21.44C221.149 17.8 220.069 14.4 217.509 11.8C215.429 9.76 212.589 8.6 209.469 8.6C202.869 8.6 197.989 13.92 197.989 20.16C197.989 25.92 202.389 31.64 209.509 31.64C211.709 31.64 213.869 31.04 215.709 29.8C217.549 28.6 219.069 26.8 220.109 24.4H215.789C214.589 26.68 212.429 28.08 209.509 28.08C206.229 28.08 202.389 25.84 202.189 21.44H220.789ZM202.269 18.2C202.469 15.24 205.229 12.16 209.469 12.16C213.589 12.08 216.469 15.32 216.669 18.2H202.269ZM224.861 31H229.021V19.24C229.021 14.92 231.061 12.76 234.981 12.76H235.261V8.6C232.301 8.64 230.021 9.88 228.781 12.44V9.24H224.861V31Z" fill="#FF7B72"/>
</svg>
